<svg width="20" height="25" viewBox="0 0 20 25" fill="none" xmlns="http://www.w3.org/2000/svg">
<path d="M2.6142 5.38274C2.44098 5.565 2.45117 5.85278 2.65496 6.01585L5.2431 8.40438C5.44689 8.57705 5.77295 8.54827 5.94617 8.33724C6.09902 8.14539 6.04807 7.8768 5.86466 7.71372L3.28671 5.35397C3.09311 5.19089 2.78742 5.20049 2.6142 5.38274Z" fill="#02861F" fill-opacity="0.8"/>
<path d="M2.6142 5.38274C2.44098 5.565 2.45117 5.85278 2.65496 6.01585L5.2431 8.40438C5.44689 8.57705 5.77295 8.54827 5.94617 8.33724C6.09902 8.14539 6.04807 7.8768 5.86466 7.71372L3.28671 5.35397C3.09311 5.19089 2.78742 5.20049 2.6142 5.38274Z" fill="url(#paint0_radial)"/>
<path d="M12.8851 5.00861L12.6202 0.423393C12.61 0.173988 12.3858 -0.0178622 12.1209 0.00132285C11.856 0.0109154 11.6522 0.221951 11.6725 0.471356L11.9375 5.05657C11.9477 5.30598 12.1718 5.49783 12.4368 5.47864C12.7017 5.46905 12.8953 5.25802 12.8851 5.00861Z" fill="#02861F" fill-opacity="0.8"/>
<path d="M12.8851 5.00861L12.6202 0.423393C12.61 0.173988 12.3858 -0.0178622 12.1209 0.00132285C11.856 0.0109154 11.6522 0.221951 11.6725 0.471356L11.9375 5.05657C11.9477 5.30598 12.1718 5.49783 12.4368 5.47864C12.7017 5.46905 12.8953 5.25802 12.8851 5.00861Z" fill="url(#paint1_radial)"/>
<path d="M6.94472 0.509752C6.8632 0.269939 6.59827 0.145236 6.34354 0.212384C6.0888 0.289124 5.95633 0.538529 6.02766 0.778342L7.45419 5.09497C7.53571 5.33478 7.80064 5.45949 8.05538 5.39234C8.31011 5.3156 8.44258 5.06619 8.37125 4.82638L6.94472 0.509752Z" fill="#02861F" fill-opacity="0.8"/>
<path d="M6.94472 0.509752C6.8632 0.269939 6.59827 0.145236 6.34354 0.212384C6.0888 0.289124 5.95633 0.538529 6.02766 0.778342L7.45419 5.09497C7.53571 5.33478 7.80064 5.45949 8.05538 5.39234C8.31011 5.3156 8.44258 5.06619 8.37125 4.82638L6.94472 0.509752Z" fill="url(#paint2_radial)"/>
<path d="M0.46415 12.5771C1.96201 14.6011 1.95182 15.5124 1.94163 16.3949C1.8703 22.8315 6.60843 24.8267 9.43092 24.9802C9.6449 24.9898 9.84869 24.9994 10.0627 24.9994C12.6916 25.0282 15.2186 23.9922 16.9915 22.16L18.5607 20.5389L18.5913 20.5101L19.3657 19.7043C20.2114 18.9082 20.2114 17.6228 19.3657 16.8266C19.0702 16.5484 18.7034 16.3566 18.2958 16.2798C18.5811 15.3014 17.9697 14.2942 16.9406 14.0256C16.8387 13.9968 16.7368 13.9776 16.6349 13.968C16.7164 13.7666 16.7572 13.5555 16.7572 13.3349C16.7572 12.3661 16.0337 11.5315 15.025 11.3493L17.6131 8.90318C18.4588 8.107 18.4588 6.82161 17.6131 6.02543C16.7674 5.22925 15.402 5.22925 14.5562 6.02543C14.5359 6.04461 14.5155 6.0638 14.5053 6.07339C11.6624 8.92237 8.13685 12.1742 6.74089 12.7018C5.92573 13.0184 5.73213 12.769 5.10038 11.8001C4.66223 11.0423 4.08143 10.3612 3.38854 9.79528C2.56319 9.16218 1.59519 9.14299 0.790215 9.74732C-0.126841 10.438 -0.259305 11.5987 0.46415 12.5771ZM17.8067 17.1336C18.1226 17.1336 18.4385 17.2487 18.6626 17.4693C19.1313 17.9201 19.1313 18.6396 18.6524 19.0904C18.6524 19.0904 18.6524 19.0904 18.6422 19.1L17.8882 19.8866C17.4705 20.0689 16.9814 19.9921 16.6553 19.6948L16.6145 19.6564C16.207 19.2823 16.1662 18.6779 16.5228 18.2655L17.715 17.1431L17.8067 17.1336ZM17.0934 15.1191C17.4603 15.4645 17.4806 16.0112 17.1546 16.3853C17.1342 16.4045 17.1138 16.4237 17.1036 16.4429L15.728 17.7379C15.3307 17.8722 14.8925 17.7858 14.5868 17.5173L14.5257 17.4597C14.1385 17.076 14.1079 16.4909 14.4544 16.0784C14.648 15.9345 15.4427 15.3398 15.8707 14.9944C16.2681 14.7738 16.7674 14.8218 17.0934 15.1191ZM15.4224 12.5387C15.6465 12.7498 15.779 13.0376 15.779 13.3445C15.7484 13.709 15.565 14.0544 15.2797 14.2942C14.9842 14.534 14.3626 15.004 13.8939 15.3493C13.4965 15.4549 13.0584 15.3493 12.7629 15.0712L12.7323 15.0424C12.284 14.6203 12.284 13.9201 12.7323 13.498L13.8532 12.4428C14.3321 12.0879 14.9944 12.1359 15.4224 12.5387ZM1.37102 10.4476C1.82955 10.1022 2.28807 10.1214 2.77717 10.4859C3.38854 10.9848 3.88783 11.5795 4.27503 12.251C4.4992 12.6443 4.77431 12.9992 5.10038 13.3157C5.11057 13.3253 5.12076 13.3445 5.13095 13.3541C5.17171 13.3925 6.08876 14.3325 5.15133 15.7043C5.01886 15.9153 5.09019 16.1935 5.32455 16.3182C5.53853 16.4333 5.81365 16.3757 5.9563 16.1839C6.48615 15.4645 6.64919 14.5532 6.39445 13.709C6.62881 13.6803 6.86317 13.6227 7.08733 13.5268C8.9622 12.7977 13.3743 8.4907 15.188 6.67772C15.4122 6.4475 15.7179 6.3228 16.0439 6.3132C16.37 6.30361 16.6859 6.42831 16.9202 6.64894C17.3889 7.0902 17.3889 7.80964 16.9202 8.25089L12.0598 12.8169C11.2345 13.5939 11.2243 14.8505 12.0496 15.6371C12.0496 15.6371 12.0496 15.6371 12.0598 15.6467L12.0904 15.6755C12.4165 15.9825 12.8444 16.1839 13.3131 16.2415C13.1399 16.9033 13.3539 17.594 13.8532 18.0736L13.8939 18.112C14.2811 18.4765 14.8008 18.6779 15.351 18.6779C15.2899 19.2631 15.5039 19.8386 15.942 20.2511L15.9828 20.2895C16.2579 20.5485 16.6043 20.7307 16.9915 20.8075L16.2783 21.5557L16.2579 21.5749C14.5257 23.3303 12.0394 24.2512 9.50225 24.0689C8.26932 23.973 7.08734 23.5797 6.05819 22.9466C6.12952 22.9466 6.21104 22.9466 6.28236 22.9466H6.48615C7.67833 22.8699 8.7686 22.1888 9.7468 20.9226C9.89964 20.7212 9.8385 20.4334 9.62452 20.2991C9.41054 20.1648 9.12524 20.2128 8.97239 20.4046C8.17761 21.4502 7.32169 22.0065 6.43521 22.0641C5.19209 22.1408 4.24446 21.2104 4.22408 21.1912C4.2037 21.172 4.18332 21.1528 4.15275 21.1336C3.38854 20.0401 2.86888 18.5149 2.89944 16.4045C2.90963 15.2151 2.79755 14.1407 1.24874 12.0495C0.881921 11.5795 0.790215 10.8888 1.37102 10.4476Z" fill="#02861F" fill-opacity="0.8"/>
<path d="M0.46415 12.5771C1.96201 14.6011 1.95182 15.5124 1.94163 16.3949C1.8703 22.8315 6.60843 24.8267 9.43092 24.9802C9.6449 24.9898 9.84869 24.9994 10.0627 24.9994C12.6916 25.0282 15.2186 23.9922 16.9915 22.16L18.5607 20.5389L18.5913 20.5101L19.3657 19.7043C20.2114 18.9082 20.2114 17.6228 19.3657 16.8266C19.0702 16.5484 18.7034 16.3566 18.2958 16.2798C18.5811 15.3014 17.9697 14.2942 16.9406 14.0256C16.8387 13.9968 16.7368 13.9776 16.6349 13.968C16.7164 13.7666 16.7572 13.5555 16.7572 13.3349C16.7572 12.3661 16.0337 11.5315 15.025 11.3493L17.6131 8.90318C18.4588 8.107 18.4588 6.82161 17.6131 6.02543C16.7674 5.22925 15.402 5.22925 14.5562 6.02543C14.5359 6.04461 14.5155 6.0638 14.5053 6.07339C11.6624 8.92237 8.13685 12.1742 6.74089 12.7018C5.92573 13.0184 5.73213 12.769 5.10038 11.8001C4.66223 11.0423 4.08143 10.3612 3.38854 9.79528C2.56319 9.16218 1.59519 9.14299 0.790215 9.74732C-0.126841 10.438 -0.259305 11.5987 0.46415 12.5771ZM17.8067 17.1336C18.1226 17.1336 18.4385 17.2487 18.6626 17.4693C19.1313 17.9201 19.1313 18.6396 18.6524 19.0904C18.6524 19.0904 18.6524 19.0904 18.6422 19.1L17.8882 19.8866C17.4705 20.0689 16.9814 19.9921 16.6553 19.6948L16.6145 19.6564C16.207 19.2823 16.1662 18.6779 16.5228 18.2655L17.715 17.1431L17.8067 17.1336ZM17.0934 15.1191C17.4603 15.4645 17.4806 16.0112 17.1546 16.3853C17.1342 16.4045 17.1138 16.4237 17.1036 16.4429L15.728 17.7379C15.3307 17.8722 14.8925 17.7858 14.5868 17.5173L14.5257 17.4597C14.1385 17.076 14.1079 16.4909 14.4544 16.0784C14.648 15.9345 15.4427 15.3398 15.8707 14.9944C16.2681 14.7738 16.7674 14.8218 17.0934 15.1191ZM15.4224 12.5387C15.6465 12.7498 15.779 13.0376 15.779 13.3445C15.7484 13.709 15.565 14.0544 15.2797 14.2942C14.9842 14.534 14.3626 15.004 13.8939 15.3493C13.4965 15.4549 13.0584 15.3493 12.7629 15.0712L12.7323 15.0424C12.284 14.6203 12.284 13.9201 12.7323 13.498L13.8532 12.4428C14.3321 12.0879 14.9944 12.1359 15.4224 12.5387ZM1.37102 10.4476C1.82955 10.1022 2.28807 10.1214 2.77717 10.4859C3.38854 10.9848 3.88783 11.5795 4.27503 12.251C4.4992 12.6443 4.77431 12.9992 5.10038 13.3157C5.11057 13.3253 5.12076 13.3445 5.13095 13.3541C5.17171 13.3925 6.08876 14.3325 5.15133 15.7043C5.01886 15.9153 5.09019 16.1935 5.32455 16.3182C5.53853 16.4333 5.81365 16.3757 5.9563 16.1839C6.48615 15.4645 6.64919 14.5532 6.39445 13.709C6.62881 13.6803 6.86317 13.6227 7.08733 13.5268C8.9622 12.7977 13.3743 8.4907 15.188 6.67772C15.4122 6.4475 15.7179 6.3228 16.0439 6.3132C16.37 6.30361 16.6859 6.42831 16.9202 6.64894C17.3889 7.0902 17.3889 7.80964 16.9202 8.25089L12.0598 12.8169C11.2345 13.5939 11.2243 14.8505 12.0496 15.6371C12.0496 15.6371 12.0496 15.6371 12.0598 15.6467L12.0904 15.6755C12.4165 15.9825 12.8444 16.1839 13.3131 16.2415C13.1399 16.9033 13.3539 17.594 13.8532 18.0736L13.8939 18.112C14.2811 18.4765 14.8008 18.6779 15.351 18.6779C15.2899 19.2631 15.5039 19.8386 15.942 20.2511L15.9828 20.2895C16.2579 20.5485 16.6043 20.7307 16.9915 20.8075L16.2783 21.5557L16.2579 21.5749C14.5257 23.3303 12.0394 24.2512 9.50225 24.0689C8.26932 23.973 7.08734 23.5797 6.05819 22.9466C6.12952 22.9466 6.21104 22.9466 6.28236 22.9466H6.48615C7.67833 22.8699 8.7686 22.1888 9.7468 20.9226C9.89964 20.7212 9.8385 20.4334 9.62452 20.2991C9.41054 20.1648 9.12524 20.2128 8.97239 20.4046C8.17761 21.4502 7.32169 22.0065 6.43521 22.0641C5.19209 22.1408 4.24446 21.2104 4.22408 21.1912C4.2037 21.172 4.18332 21.1528 4.15275 21.1336C3.38854 20.0401 2.86888 18.5149 2.89944 16.4045C2.90963 15.2151 2.79755 14.1407 1.24874 12.0495C0.881921 11.5795 0.790215 10.8888 1.37102 10.4476Z" fill="url(#paint3_radial)"/>
<defs>
<radialGradient id="paint0_radial" cx="0" cy="0" r="1" gradientUnits="userSpaceOnUse" gradientTransform="translate(10 12.5) rotate(90) scale(12.5 10)">
<stop offset="0.286458" stop-color="#02861F"/>
<stop offset="1" stop-color="#016F19"/>
</radialGradient>
<radialGradient id="paint1_radial" cx="0" cy="0" r="1" gradientUnits="userSpaceOnUse" gradientTransform="translate(10 12.5) rotate(90) scale(12.5 10)">
<stop offset="0.286458" stop-color="#02861F"/>
<stop offset="1" stop-color="#016F19"/>
</radialGradient>
<radialGradient id="paint2_radial" cx="0" cy="0" r="1" gradientUnits="userSpaceOnUse" gradientTransform="translate(10 12.5) rotate(90) scale(12.5 10)">
<stop offset="0.286458" stop-color="#02861F"/>
<stop offset="1" stop-color="#016F19"/>
</radialGradient>
<radialGradient id="paint3_radial" cx="0" cy="0" r="1" gradientUnits="userSpaceOnUse" gradientTransform="translate(10 12.5) rotate(90) scale(12.5 10)">
<stop offset="0.286458" stop-color="#02861F"/>
<stop offset="1" stop-color="#016F19"/>
</radialGradient>
</defs>
</svg>
