<svg width="23" height="26" viewBox="0 0 23 26" fill="none" xmlns="http://www.w3.org/2000/svg">
<path d="M1.42578 1.72602C1.87339 1.08841 2.60874 0.642087 3.40805 0.546446C4.84679 0.355164 6.22159 1.37533 6.54131 2.84183L6.893 4.40396C6.98892 4.81841 6.92497 5.26473 6.6692 5.61541C6.41342 5.9661 6.06173 6.22114 5.64609 6.31678L3.56791 6.7631C3.44002 6.79498 3.3441 6.79498 3.21621 6.79498C2.57677 6.79498 1.9693 6.41242 1.71353 5.8067L0.978171 4.05328L0.946199 3.95764C0.818311 3.22439 0.978171 2.3955 1.42578 1.72602ZM2.22508 3.67072L2.92847 5.36037C2.99241 5.51977 3.15227 5.58353 3.31213 5.55165L5.39031 5.10533C5.48623 5.07345 5.55017 5.04157 5.61412 4.94593C5.67806 4.88217 5.67806 4.78653 5.64609 4.69089L5.2944 3.12875C5.13454 2.36362 4.46312 1.82166 3.72777 1.82166C3.66382 1.82166 3.59988 1.82166 3.56791 1.82166C3.1203 1.88542 2.73663 2.10858 2.48086 2.45926C2.22508 2.80995 2.16114 3.25627 2.22508 3.67072Z" fill="#19017A"/>
<path d="M3.7278 7.17753L4.33527 7.01813C5.61415 6.66745 6.76515 6.79497 7.69234 7.36881C8.81136 8.07018 9.61066 9.40915 9.99433 11.2263L11.1133 16.8373C11.1453 17.0285 11.3052 17.1242 11.497 17.1242L16.101 16.6779C17.8914 16.5822 19.49 17.0285 20.4812 17.985C21.3444 18.782 21.856 19.9297 21.856 21.3005V21.428C21.856 22.3526 21.1206 23.1496 20.2574 23.4365V23.9147C20.2574 24.8073 19.522 25.4768 18.6268 25.4768H8.17192C7.2767 25.4768 6.50937 24.8073 6.50937 23.9147V21.8106C6.2536 21.4599 6.06176 21.0455 5.93388 20.5991L2.54484 9.24975C2.353 8.29334 2.86456 7.43258 3.7278 7.17753ZM7.82023 23.8828C7.82023 24.0741 8.01206 24.1697 8.20389 24.1697H18.6588C18.8506 24.1697 19.0104 24.0422 19.0104 23.8828V23.5321H9.89841C9.16305 23.5321 8.4277 23.309 7.82023 22.9264V23.8828ZM3.79175 8.80343L7.21276 20.1847C7.53248 21.3961 8.6515 22.2569 9.89841 22.2569H19.6499C20.0975 22.2569 20.6091 21.8425 20.6091 21.3961V21.2686C20.6091 20.2485 20.2254 19.4514 19.6179 18.8776C18.9465 18.24 17.8595 17.8893 16.6445 17.8893C16.5166 17.8893 16.3568 17.8893 16.2289 17.8893L11.6569 18.3675C10.7936 18.4632 9.99433 17.8893 9.86644 17.0604L8.74742 11.5133C8.4277 10.0468 7.8522 8.99471 7.02093 8.48463C6.38148 8.10206 5.58218 8.00642 4.65499 8.26146L4.04752 8.42086C3.88766 8.48462 3.75977 8.64403 3.79175 8.80343Z" fill="#19017A"/>
<path fill-rule="evenodd" clip-rule="evenodd" d="M6.02948 2.95314C5.76313 1.73145 4.62455 0.912501 3.47715 1.06505L3.47035 1.06595C2.82122 1.14362 2.22075 1.50796 1.85806 2.02154C1.49621 2.56563 1.36286 3.23901 1.45613 3.83112L1.46883 3.86911L2.19616 5.60338C2.36726 6.00792 2.77987 6.2718 3.21621 6.2718C3.34475 6.2718 3.38227 6.27014 3.44105 6.25549L3.44939 6.25342L5.53187 5.80617C5.80598 5.74216 6.05396 5.57038 6.24581 5.30735C6.3992 5.09704 6.44962 4.81118 6.38264 4.52179L6.38193 4.51874L6.02948 2.95314ZM2.63216 7.23697C2.02092 7.06449 1.49111 6.62628 1.23088 6.01L1.23038 6.00883L0.487493 4.23744L0.436897 4.08609L0.430152 4.04742C0.279487 3.18358 0.466824 2.21822 0.990159 1.43547L0.996775 1.42558C1.52903 0.667399 2.39621 0.141606 3.34232 0.0273873C5.07051 -0.200498 6.67914 1.01948 7.05272 2.72871L7.40371 4.28771C7.52805 4.82681 7.45037 5.43289 7.09256 5.92347C6.96418 6.09949 6.81389 6.25942 6.64386 6.39603C7.1137 6.49468 7.55792 6.67014 7.96823 6.92409L7.97075 6.92566C9.25216 7.72881 10.106 9.21988 10.5069 11.1184L10.5081 11.1241L11.5979 16.5888L16.0617 16.156L16.073 16.1554C17.9474 16.0553 19.709 16.5154 20.8409 17.6047C21.816 18.5071 22.3798 19.7959 22.3798 21.3005V21.428C22.3798 22.4906 21.6512 23.3625 20.7812 23.7864V23.9147C20.7812 25.1241 19.7826 26 18.6268 26H8.17191C7.02965 26 5.98555 25.1367 5.98555 23.9147V21.9739C5.73981 21.6016 5.55657 21.1829 5.43108 20.7459L2.03597 9.37617L2.03122 9.35252C1.86871 8.54231 2.10954 7.7628 2.63216 7.23697ZM3.86935 7.68132C3.29352 7.85519 2.92452 8.42863 3.05417 9.12495L6.43749 20.4552C6.55125 20.8522 6.71862 21.209 6.93274 21.5025L7.03317 21.6402V23.9147C7.03317 24.4779 7.52374 24.9536 8.17191 24.9536H18.6268C19.2614 24.9536 19.7335 24.4906 19.7335 23.9147V23.0592L20.092 22.9401C20.7998 22.7048 21.3321 22.0712 21.3321 21.428V21.3005C21.3321 20.0656 20.8745 19.0605 20.1256 18.3691L20.1171 18.3613C19.2685 17.5424 17.8394 17.1111 16.1401 17.1997L11.5224 17.6474H11.497C11.3178 17.6474 11.118 17.603 10.9435 17.4801C10.7625 17.3527 10.639 17.1611 10.5984 16.9331L9.48117 11.3314C9.11462 9.59786 8.37065 8.41224 7.41514 7.81274C6.63529 7.33062 5.64048 7.20276 4.47394 7.52264L4.46837 7.52417L3.86935 7.68132ZM3.53073 1.29848H3.72776C4.71743 1.29848 5.59572 2.01975 5.80626 3.01764L6.15261 4.55602C6.20072 4.71945 6.24025 5.02168 6.02357 5.2738C5.96425 5.35459 5.89302 5.42617 5.80442 5.48507C5.7093 5.5483 5.61604 5.58168 5.5557 5.60174L5.52847 5.61079L3.41469 6.06476C3.061 6.13529 2.62117 5.99552 2.44375 5.55873L1.71704 3.81304L1.70737 3.7504C1.6282 3.23724 1.70008 2.6412 2.05747 2.15121C2.40157 1.67942 2.91492 1.3862 3.49394 1.30372L3.53073 1.29848ZM3.6082 2.34483C3.30761 2.39567 3.06569 2.54594 2.90423 2.76732C2.75957 2.96564 2.70134 3.23901 2.73495 3.5328L3.34927 5.00853L5.09624 4.63334L4.78156 3.23564C4.67079 2.70546 4.2074 2.34483 3.72776 2.34483H3.6082ZM4.51897 7.75622C5.55629 7.47158 6.50679 7.56718 7.29008 8.0358L7.29513 8.03882C8.30685 8.65963 8.92799 9.88265 9.25922 11.4019L9.26096 11.4099L10.3823 16.9689L10.3841 16.9807C10.4656 17.509 10.9905 17.915 11.5991 17.8475L11.6023 17.8472L16.2015 17.3661H16.6445C17.9443 17.3661 19.1793 17.7391 19.9788 18.4984L19.6179 18.8776L19.9778 18.4975L19.9788 18.4984C20.6903 19.171 21.1328 20.1051 21.1328 21.2686V21.3961C21.1328 21.8186 20.8973 22.1665 20.6407 22.389C20.3821 22.6132 20.0246 22.7801 19.6499 22.7801H9.8984C8.41601 22.7801 7.09192 21.7628 6.70862 20.327L6.71106 20.3351L7.21276 20.1847L6.70624 20.318C6.70703 20.321 6.70782 20.324 6.70862 20.327L3.28297 8.93031L3.27813 8.90619C3.22741 8.65331 3.31002 8.42958 3.41999 8.27423C3.52901 8.12023 3.68374 8.0026 3.85326 7.93499L3.88321 7.92304L4.51897 7.75622ZM4.51897 7.75622L4.5159 7.75706L4.65499 8.26146L4.52189 7.75545L4.51897 7.75622ZM6.74922 8.93193C6.25472 8.63708 5.60854 8.54182 4.79406 8.76586L4.78809 8.7675L4.36148 8.87941L7.71699 20.0428L7.71925 20.0513C7.97852 21.0337 8.89006 21.7337 9.8984 21.7337H19.6499C19.7228 21.7337 19.8449 21.6934 19.9539 21.5988C20.065 21.5025 20.0852 21.42 20.0852 21.3961V21.2686C20.0852 20.3923 19.7609 19.7328 19.258 19.2577L19.257 19.2568C18.7137 18.7408 17.7746 18.4125 16.6445 18.4125H16.2563L11.7146 18.8875L11.713 18.8877C10.6 19.0102 9.53099 18.2746 9.35074 17.1528L8.23473 11.6206C7.92678 10.211 7.3983 9.33164 6.74922 8.93193ZM7.29641 21.978L8.09959 22.4838C8.62687 22.8159 9.26592 23.0089 9.8984 23.0089H19.5342V23.8828C19.5342 24.4281 19.0321 24.6929 18.6587 24.6929H8.20388C8.03043 24.6929 7.82698 24.6513 7.64989 24.5335C7.45729 24.4055 7.29641 24.1818 7.29641 23.8828V21.978Z" fill="#19017A"/>
</svg>
