<svg width="28" height="32" viewBox="0 0 28 32" fill="none" xmlns="http://www.w3.org/2000/svg">
<path d="M26.6665 21.8508L23.8332 20.2216L25.094 19.8816C25.2792 19.8385 25.4538 19.7585 25.6074 19.6465C25.761 19.5344 25.8905 19.3926 25.9882 19.2295C26.0858 19.0664 26.1496 18.8852 26.1758 18.6969C26.202 18.5086 26.19 18.3169 26.1405 18.1334C26.091 17.9498 26.0051 17.778 25.8879 17.6284C25.7706 17.4787 25.6245 17.3541 25.4581 17.2621C25.2917 17.1701 25.1085 17.1126 24.9194 17.0929C24.7303 17.0732 24.5392 17.0917 24.3574 17.1475L20.3624 18.2241L16.5232 16L20.3624 13.7758L24.3574 14.8525H24.7257C25.1014 14.9013 25.4812 14.7989 25.7814 14.5678C26.0816 14.3366 26.2777 13.9957 26.3265 13.62C26.3754 13.2442 26.273 12.8645 26.0418 12.5643C25.8107 12.2641 25.4698 12.068 25.094 12.0191L23.8332 11.75L26.6665 10.1208C26.8284 10.0278 26.9703 9.90378 27.0843 9.75591C27.1982 9.60803 27.2819 9.43916 27.3306 9.25893C27.3793 9.07871 27.392 8.89067 27.368 8.70553C27.344 8.5204 27.2837 8.34181 27.1907 8.17996C27.0977 8.01811 26.9737 7.87616 26.8258 7.76222C26.6779 7.64828 26.5091 7.56459 26.3289 7.51592C26.1486 7.46724 25.9606 7.45454 25.7755 7.47854C25.5903 7.50254 25.4117 7.56277 25.2499 7.65579L22.1899 9.44079L22.6149 7.86829C22.6706 7.68652 22.6892 7.49538 22.6695 7.30628C22.6498 7.11717 22.5922 6.93397 22.5002 6.76758C22.4082 6.6012 22.2837 6.45503 22.134 6.33779C21.9843 6.22055 21.8126 6.13465 21.629 6.08518C21.4454 6.03572 21.2537 6.02372 21.0654 6.04989C20.8771 6.07606 20.696 6.13987 20.5328 6.23752C20.3697 6.33516 20.2279 6.46465 20.1159 6.61826C20.0038 6.77187 19.9239 6.94646 19.8807 7.13163L18.719 11.3816L15.1065 13.5491V9.11496L18.039 6.18246C18.3029 5.91703 18.451 5.55797 18.451 5.18371C18.451 4.80945 18.3029 4.45039 18.039 4.18496C17.9073 4.05218 17.7507 3.94679 17.578 3.87486C17.4054 3.80294 17.2202 3.76591 17.0332 3.76591C16.8462 3.76591 16.661 3.80294 16.4884 3.87486C16.3158 3.94679 16.1591 4.05218 16.0274 4.18496L15.1065 5.10579V1.83329C15.1065 1.45757 14.9573 1.09723 14.6916 0.831558C14.4259 0.565881 14.0656 0.416626 13.6899 0.416626C13.3142 0.416626 12.9538 0.565881 12.6881 0.831558C12.4225 1.09723 12.2732 1.45757 12.2732 1.83329V5.33246L11.1257 4.18496C10.994 4.05218 10.8373 3.94679 10.6647 3.87486C10.4921 3.80294 10.3069 3.76591 10.1199 3.76591C9.93286 3.76591 9.7477 3.80294 9.57506 3.87486C9.40243 3.94679 9.24574 4.05218 9.11405 4.18496C8.85019 4.45039 8.70209 4.80945 8.70209 5.18371C8.70209 5.55797 8.85019 5.91703 9.11405 6.18246L12.2732 9.34163V13.5916L8.63238 11.4383L7.47071 7.18829C7.42757 7.00312 7.3476 6.82853 7.23556 6.67493C7.12353 6.52132 6.98171 6.39183 6.81858 6.29418C6.65544 6.19654 6.47432 6.13273 6.286 6.10656C6.09768 6.08038 5.90603 6.09239 5.72245 6.14185C5.53887 6.19131 5.36712 6.27722 5.21744 6.39446C5.06776 6.5117 4.94321 6.65786 4.85122 6.82425C4.75922 6.99064 4.70166 7.17384 4.68195 7.36294C4.66225 7.55205 4.68082 7.74318 4.73655 7.92496L5.18988 9.44079L2.12988 7.68413C1.96802 7.59111 1.78943 7.53088 1.6043 7.50688C1.41917 7.48288 1.23113 7.49558 1.0509 7.54425C0.870681 7.59292 0.701809 7.67662 0.553932 7.79055C0.406054 7.90449 0.282065 8.04644 0.189046 8.20829C0.0960261 8.37015 0.0357969 8.54874 0.0117969 8.73387C-0.0122031 8.919 0.000495947 9.10704 0.0491693 9.28727C0.14747 9.65124 0.386333 9.96126 0.713212 10.1491L3.54655 11.75L2.35655 12.1183C1.98082 12.1671 1.63989 12.3632 1.40875 12.6635C1.17761 12.9637 1.0752 13.3434 1.12405 13.7191C1.17289 14.0948 1.36899 14.4358 1.6692 14.6669C1.96942 14.8981 2.34916 15.0005 2.72488 14.9516H3.09321L7.08821 13.875L10.8565 16L7.01738 18.2241L3.02238 17.1475C2.83493 17.0779 2.63487 17.0487 2.43535 17.062C2.23583 17.0752 2.04138 17.1306 1.86478 17.2243C1.68818 17.3181 1.53344 17.4482 1.41073 17.6061C1.28801 17.764 1.20011 17.946 1.1528 18.1403C1.10549 18.3346 1.09984 18.5367 1.13623 18.7333C1.17261 18.9299 1.25021 19.1166 1.36391 19.2811C1.47762 19.4456 1.62485 19.5841 1.79594 19.6876C1.96702 19.7911 2.15808 19.8573 2.35655 19.8816L3.61738 20.2216L0.784046 21.8508C0.457167 22.0387 0.218303 22.3487 0.120003 22.7127C0.0217023 23.0766 0.0720173 23.4647 0.259879 23.7916C0.447741 24.1185 0.75776 24.3574 1.12174 24.4557C1.48571 24.554 1.87383 24.5037 2.20071 24.3158L5.18988 22.5591L4.76488 24.1316C4.70872 24.313 4.68958 24.5037 4.7086 24.6926C4.72762 24.8815 4.78441 25.0646 4.87559 25.2311C4.96677 25.3977 5.09049 25.5441 5.23939 25.6619C5.38829 25.7796 5.55934 25.8663 5.74238 25.9166C5.86476 25.9305 5.98833 25.9305 6.11071 25.9166C6.43054 25.9276 6.74466 25.8299 7.0019 25.6396C7.25915 25.4492 7.44436 25.1774 7.52738 24.8683L8.68905 20.6183L12.2732 18.4508V22.885L9.34071 25.8175C9.07686 26.0829 8.92875 26.4419 8.92875 26.8162C8.92875 27.1905 9.07686 27.5495 9.34071 27.815C9.47192 27.9488 9.62838 28.0553 9.80104 28.1283C9.97369 28.2012 10.1591 28.2392 10.3465 28.24C10.534 28.2392 10.7194 28.2012 10.8921 28.1283C11.0647 28.0553 11.2212 27.9488 11.3524 27.815L12.2732 26.8941V30.1666C12.2732 30.5423 12.4225 30.9027 12.6881 31.1684C12.9538 31.434 13.3142 31.5833 13.6899 31.5833C14.0656 31.5833 14.4259 31.434 14.6916 31.1684C14.9573 30.9027 15.1065 30.5423 15.1065 30.1666V26.6675L16.254 27.815C16.3857 27.9477 16.5424 28.0531 16.7151 28.1251C16.8877 28.197 17.0729 28.234 17.2599 28.234C17.4469 28.234 17.6321 28.197 17.8047 28.1251C17.9773 28.0531 18.134 27.9477 18.2657 27.815C18.5296 27.5495 18.6777 27.1905 18.6777 26.8162C18.6777 26.4419 18.5296 26.0829 18.2657 25.8175L15.1065 22.6583V18.4083L18.7474 20.5191L19.909 24.7691C19.9921 25.0782 20.1773 25.35 20.4345 25.5404C20.6918 25.7308 21.0059 25.8284 21.3257 25.8175C21.4481 25.8314 21.5717 25.8314 21.694 25.8175C21.8749 25.7698 22.0446 25.6868 22.1932 25.5732C22.3418 25.4597 22.4665 25.3178 22.56 25.1558C22.6535 24.9938 22.714 24.8149 22.738 24.6294C22.762 24.4438 22.7491 24.2554 22.6999 24.075L22.1899 22.5591L25.2215 24.3158C25.3834 24.4088 25.562 24.469 25.7471 24.493C25.9323 24.517 26.1203 24.5043 26.3005 24.4557C26.4807 24.407 26.6496 24.3233 26.7975 24.2094C26.9454 24.0954 27.0694 23.9535 27.1624 23.7916C27.2554 23.6298 27.3156 23.4512 27.3396 23.2661C27.3636 23.0809 27.3509 22.8929 27.3023 22.7127C27.2536 22.5324 27.1699 22.3636 27.056 22.2157C26.942 22.0678 26.8001 21.9438 26.6382 21.8508H26.6665Z" fill="#19017A"/>
</svg>
