<svg width="20" height="20" viewBox="0 0 20 20" fill="none" xmlns="http://www.w3.org/2000/svg">
<path d="M7.29248 20C7.04597 20 6.80902 19.8702 6.63392 19.6379L0.272731 11.187C-0.0909104 10.7038 -0.0909104 9.92055 0.272731 9.4374C0.636373 8.95425 1.22591 8.95385 1.58955 9.4374L7.25393 16.9625L18.3741 0.413177C18.7169 -0.0965722 19.3058 -0.140639 19.6889 0.314324C20.0725 0.769287 20.106 1.55138 19.7636 2.06113L7.98719 19.5867C7.81658 19.8408 7.57485 19.9901 7.31907 19.9996C7.30981 20 7.30114 20 7.29248 20Z" fill="#02861F" fill-opacity="0.8"/>
<path d="M7.29248 20C7.04597 20 6.80902 19.8702 6.63392 19.6379L0.272731 11.187C-0.0909104 10.7038 -0.0909104 9.92055 0.272731 9.4374C0.636373 8.95425 1.22591 8.95385 1.58955 9.4374L7.25393 16.9625L18.3741 0.413177C18.7169 -0.0965722 19.3058 -0.140639 19.6889 0.314324C20.0725 0.769287 20.106 1.55138 19.7636 2.06113L7.98719 19.5867C7.81658 19.8408 7.57485 19.9901 7.31907 19.9996C7.30981 20 7.30114 20 7.29248 20Z" fill="url(#paint0_radial)"/>
<defs>
<radialGradient id="paint0_radial" cx="0" cy="0" r="1" gradientUnits="userSpaceOnUse" gradientTransform="translate(10 10) rotate(90) scale(10)">
<stop offset="0.286458" stop-color="#02861F"/>
<stop offset="1" stop-color="#016F19"/>
</radialGradient>
</defs>
</svg>
