<svg width="50" height="50" viewBox="0 0 50 50" fill="none" xmlns="http://www.w3.org/2000/svg">
<path d="M31.4863 24.9408L34.7023 21.7272L25.0591 12.084L15.4159 21.7272L18.6295 24.9408L22.7863 20.7863V37.9158H27.3318V20.7863L31.4863 24.9408Z" fill="#27323A"/>
<path fill-rule="evenodd" clip-rule="evenodd" d="M0 40.9091C0 43.3201 0.95779 45.6325 2.66267 47.3373C4.36754 49.0422 6.67985 50 9.09091 50H40.9091C43.3201 50 45.6325 49.0422 47.3373 47.3373C49.0422 45.6325 50 43.3201 50 40.9091V9.09091C50 6.67985 49.0422 4.36754 47.3373 2.66267C45.6325 0.95779 43.3201 0 40.9091 0H9.09091C6.67985 0 4.36754 0.95779 2.66267 2.66267C0.95779 4.36754 0 6.67985 0 9.09091V40.9091ZM9.09091 45.4545H40.9091C42.1146 45.4545 43.2708 44.9757 44.1232 44.1232C44.9757 43.2708 45.4545 42.1146 45.4545 40.9091V9.09091C45.4545 7.88538 44.9757 6.72923 44.1232 5.87679C43.2708 5.02435 42.1146 4.54545 40.9091 4.54545H9.09091C7.88538 4.54545 6.72923 5.02435 5.87679 5.87679C5.02435 6.72923 4.54545 7.88538 4.54545 9.09091V40.9091C4.54545 42.1146 5.02435 43.2708 5.87679 44.1232C6.72923 44.9757 7.88538 45.4545 9.09091 45.4545Z" fill="#27323A"/>
</svg>
