<svg width="66" height="66" viewBox="0 0 66 66" fill="none" xmlns="http://www.w3.org/2000/svg">
<ellipse cx="33.3933" cy="33" rx="30" ry="30" stroke="url(#paint0_linear)" stroke-width="5"/>
<path d="M24.8733 41.02V44.56H38.1933V47.98H24.8733V55H18.8133V47.98H12.6933V44.56H18.8133V13H35.3133C40.7933 13 45.0733 14.22 48.1533 16.66C51.2333 19.06 52.7733 22.5 52.7733 26.98C52.7733 31.5 51.2333 34.98 48.1533 37.42C45.0733 39.82 40.7933 41.02 35.3133 41.02H24.8733ZM46.7133 27.04C46.7133 24.2 45.7333 22.02 43.7733 20.5C41.8133 18.98 38.9933 18.22 35.3133 18.22H24.8733V36.04H35.3133C38.9533 36.04 41.7533 35.26 43.7133 33.7C45.7133 32.1 46.7133 29.88 46.7133 27.04Z" fill="#02861F" fill-opacity="0.8"/>
<path d="M24.8733 41.02V44.56H38.1933V47.98H24.8733V55H18.8133V47.98H12.6933V44.56H18.8133V13H35.3133C40.7933 13 45.0733 14.22 48.1533 16.66C51.2333 19.06 52.7733 22.5 52.7733 26.98C52.7733 31.5 51.2333 34.98 48.1533 37.42C45.0733 39.82 40.7933 41.02 35.3133 41.02H24.8733ZM46.7133 27.04C46.7133 24.2 45.7333 22.02 43.7733 20.5C41.8133 18.98 38.9933 18.22 35.3133 18.22H24.8733V36.04H35.3133C38.9533 36.04 41.7533 35.26 43.7133 33.7C45.7133 32.1 46.7133 29.88 46.7133 27.04Z" fill="url(#paint1_radial)"/>
<path d="M49.5497 46.208C47.891 46.208 46.4988 47.2184 45.6147 48.4485C44.7313 47.2184 43.3385 46.208 41.6797 46.208C39.0358 46.208 36.923 48.2742 36.646 51.1255C36.617 51.3117 36.5457 51.9762 36.8025 53.0145C37.1805 54.5465 38.0493 55.9377 39.3162 57.0381L45.0823 62.0079C45.2367 62.141 45.4257 62.208 45.6147 62.208C45.8037 62.208 45.9927 62.141 46.1471 62.0085L51.9146 57.0374C53.1801 55.9391 54.0489 54.5479 54.4269 53.0152C54.6824 51.9762 54.6124 51.3124 54.5834 51.1255C54.3065 48.2742 52.1929 46.208 49.5497 46.208ZM53.0825 52.6791C52.7744 53.9301 52.0586 55.0723 51.0125 55.9788L45.6147 60.6313L40.2183 55.9795C39.1708 55.0709 38.455 53.9294 38.1469 52.6784C37.9379 51.8326 38.0126 51.3556 38.0126 51.3556L38.0237 51.2824C38.1933 49.4547 39.5038 47.604 41.6804 47.604C43.1958 47.604 44.4316 48.8669 44.9826 50.1179L45.6154 51.555L46.2482 50.1179C46.7992 48.8662 48.0343 47.604 49.5504 47.604C51.7277 47.604 53.0375 49.4547 53.2161 51.3459C53.2168 51.3493 53.2929 51.827 53.0825 52.6791Z" fill="#02861F" fill-opacity="0.8"/>
<path d="M49.5497 46.208C47.891 46.208 46.4988 47.2184 45.6147 48.4485C44.7313 47.2184 43.3385 46.208 41.6797 46.208C39.0358 46.208 36.923 48.2742 36.646 51.1255C36.617 51.3117 36.5457 51.9762 36.8025 53.0145C37.1805 54.5465 38.0493 55.9377 39.3162 57.0381L45.0823 62.0079C45.2367 62.141 45.4257 62.208 45.6147 62.208C45.8037 62.208 45.9927 62.141 46.1471 62.0085L51.9146 57.0374C53.1801 55.9391 54.0489 54.5479 54.4269 53.0152C54.6824 51.9762 54.6124 51.3124 54.5834 51.1255C54.3065 48.2742 52.1929 46.208 49.5497 46.208ZM53.0825 52.6791C52.7744 53.9301 52.0586 55.0723 51.0125 55.9788L45.6147 60.6313L40.2183 55.9795C39.1708 55.0709 38.455 53.9294 38.1469 52.6784C37.9379 51.8326 38.0126 51.3556 38.0126 51.3556L38.0237 51.2824C38.1933 49.4547 39.5038 47.604 41.6804 47.604C43.1958 47.604 44.4316 48.8669 44.9826 50.1179L45.6154 51.555L46.2482 50.1179C46.7992 48.8662 48.0343 47.604 49.5504 47.604C51.7277 47.604 53.0375 49.4547 53.2161 51.3459C53.2168 51.3493 53.2929 51.827 53.0825 52.6791Z" fill="url(#paint2_radial)"/>
<path d="M49.5497 46.208C47.891 46.208 46.4988 47.2184 45.6147 48.4485C44.7313 47.2184 43.3385 46.208 41.6797 46.208C39.0358 46.208 36.923 48.2742 36.646 51.1255C36.617 51.3117 36.5457 51.9762 36.8025 53.0145C37.1805 54.5465 38.0493 55.9377 39.3162 57.0381L45.0823 62.0079C45.2367 62.141 45.4257 62.208 45.6147 62.208C45.8037 62.208 45.9927 62.141 46.1471 62.0085L51.9146 57.0374C53.1801 55.9391 54.0489 54.5479 54.4269 53.0152C54.6824 51.9762 54.6124 51.3124 54.5834 51.1255C54.3065 48.2742 52.1929 46.208 49.5497 46.208ZM53.0825 52.6791C52.7744 53.9301 52.0586 55.0723 51.0125 55.9788L45.6147 60.6313L40.2183 55.9795C39.1708 55.0709 38.455 53.9294 38.1469 52.6784C37.9379 51.8326 38.0126 51.3556 38.0126 51.3556L38.0237 51.2824C38.1933 49.4547 39.5038 47.604 41.6804 47.604C43.1958 47.604 44.4316 48.8669 44.9826 50.1179L45.6154 51.555L46.2482 50.1179C46.7992 48.8662 48.0343 47.604 49.5504 47.604C51.7277 47.604 53.0375 49.4547 53.2161 51.3459C53.2168 51.3493 53.2929 51.827 53.0825 52.6791Z" stroke="#02861F" stroke-opacity="0.8"/>
<path d="M49.5497 46.208C47.891 46.208 46.4988 47.2184 45.6147 48.4485C44.7313 47.2184 43.3385 46.208 41.6797 46.208C39.0358 46.208 36.923 48.2742 36.646 51.1255C36.617 51.3117 36.5457 51.9762 36.8025 53.0145C37.1805 54.5465 38.0493 55.9377 39.3162 57.0381L45.0823 62.0079C45.2367 62.141 45.4257 62.208 45.6147 62.208C45.8037 62.208 45.9927 62.141 46.1471 62.0085L51.9146 57.0374C53.1801 55.9391 54.0489 54.5479 54.4269 53.0152C54.6824 51.9762 54.6124 51.3124 54.5834 51.1255C54.3065 48.2742 52.1929 46.208 49.5497 46.208ZM53.0825 52.6791C52.7744 53.9301 52.0586 55.0723 51.0125 55.9788L45.6147 60.6313L40.2183 55.9795C39.1708 55.0709 38.455 53.9294 38.1469 52.6784C37.9379 51.8326 38.0126 51.3556 38.0126 51.3556L38.0237 51.2824C38.1933 49.4547 39.5038 47.604 41.6804 47.604C43.1958 47.604 44.4316 48.8669 44.9826 50.1179L45.6154 51.555L46.2482 50.1179C46.7992 48.8662 48.0343 47.604 49.5504 47.604C51.7277 47.604 53.0375 49.4547 53.2161 51.3459C53.2168 51.3493 53.2929 51.827 53.0825 52.6791Z" stroke="url(#paint3_radial)"/>
<defs>
<linearGradient id="paint0_linear" x1="3.39329" y1="63.0034" x2="63.3933" y2="63.0034" gradientUnits="userSpaceOnUse">
<stop stop-color="#FFB55F"/>
<stop offset="1" stop-color="#FFB015"/>
</linearGradient>
<radialGradient id="paint1_radial" cx="0" cy="0" r="1" gradientUnits="userSpaceOnUse" gradientTransform="translate(33.3933 33) rotate(90) scale(30)">
<stop offset="0.286458" stop-color="#02861F"/>
<stop offset="1" stop-color="#016F19"/>
</radialGradient>
<radialGradient id="paint2_radial" cx="0" cy="0" r="1" gradientUnits="userSpaceOnUse" gradientTransform="translate(45.6145 54.208) rotate(90) scale(7.99999 9)">
<stop offset="0.286458" stop-color="#02861F"/>
<stop offset="1" stop-color="#016F19"/>
</radialGradient>
<radialGradient id="paint3_radial" cx="0" cy="0" r="1" gradientUnits="userSpaceOnUse" gradientTransform="translate(45.6145 54.208) rotate(90) scale(7.99999 9)">
<stop offset="0.286458" stop-color="#02861F"/>
<stop offset="1" stop-color="#016F19"/>
</radialGradient>
</defs>
</svg>
