<svg width="60" height="60" viewBox="0 0 60 60" fill="none" xmlns="http://www.w3.org/2000/svg">
<path d="M29.5373 60C13.2505 60 0 46.543 0 30.0015C0 13.4585 13.2505 0 29.5373 0C36.0129 0 42.1972 2.12158 47.4212 6.13621C48.4383 6.91704 48.6508 8.40405 47.8963 9.45684C47.1433 10.5089 45.7079 10.7313 44.6908 9.94972C40.2625 6.54681 35.0223 4.74823 29.5373 4.74823C15.7779 4.74823 4.58351 16.0768 4.58351 30.0008C4.58351 43.924 15.7779 55.2518 29.5373 55.2518C43.2973 55.2518 54.4917 43.924 54.4917 30.0008C54.4917 28.0506 54.2822 26.1545 53.8696 24.3643C53.5762 23.0891 54.3358 21.8085 55.5668 21.5038C56.7934 21.1991 58.0332 21.986 58.3281 23.262C58.8238 25.4133 59.0753 27.6804 59.0753 30.0015C59.0745 46.543 45.8248 60 29.5373 60Z" fill="url(#paint0_linear)"/>
<path d="M28.7208 45.9325C28.1141 45.9325 27.5308 45.6729 27.0998 45.2084L11.4419 28.3065C10.5469 27.3402 10.5469 25.7736 11.4419 24.8073C12.337 23.841 13.7882 23.8402 14.6833 24.8073L28.626 39.8576L55.998 6.75885C56.8416 5.73935 58.2912 5.65122 59.2341 6.56114C60.1785 7.47107 60.2609 9.03525 59.418 10.0547L30.4309 45.1059C30.0109 45.6141 29.4159 45.9126 28.7863 45.9317C28.7635 45.9325 28.7422 45.9325 28.7208 45.9325Z" fill="#02861F" fill-opacity="0.8"/>
<path d="M28.7208 45.9325C28.1141 45.9325 27.5308 45.6729 27.0998 45.2084L11.4419 28.3065C10.5469 27.3402 10.5469 25.7736 11.4419 24.8073C12.337 23.841 13.7882 23.8402 14.6833 24.8073L28.626 39.8576L55.998 6.75885C56.8416 5.73935 58.2912 5.65122 59.2341 6.56114C60.1785 7.47107 60.2609 9.03525 59.418 10.0547L30.4309 45.1059C30.0109 45.6141 29.4159 45.9126 28.7863 45.9317C28.7635 45.9325 28.7422 45.9325 28.7208 45.9325Z" fill="url(#paint1_radial)"/>
<defs>
<linearGradient id="paint0_linear" x1="-2.35117e-05" y1="60.0035" x2="59.0753" y2="60.0035" gradientUnits="userSpaceOnUse">
<stop stop-color="#FFB55F"/>
<stop offset="1" stop-color="#FFB015"/>
</linearGradient>
<radialGradient id="paint1_radial" cx="0" cy="0" r="1" gradientUnits="userSpaceOnUse" gradientTransform="translate(35.3853 25.9325) rotate(90) scale(20 24.6147)">
<stop offset="0.286458" stop-color="#02861F"/>
<stop offset="1" stop-color="#016F19"/>
</radialGradient>
</defs>
</svg>
