<svg width="64" height="64" viewBox="0 0 64 64" fill="none" xmlns="http://www.w3.org/2000/svg">
<mask id="path-1-inside-1" fill="white">
<path d="M61.6917 58.635L49.8479 38.329C49.443 37.634 48.72 37.219 47.914 37.219C47.109 37.219 46.387 37.634 45.981 38.329L34.1363 58.635C33.7273 59.335 33.7243 60.174 34.1283 60.877C34.5323 61.58 35.2573 62 36.0682 62H59.7587C60.5697 62 61.2947 61.58 61.6977 60.877C62.1027 60.174 62.1007 59.336 61.6917 58.635ZM59.9647 59.881C59.9347 59.936 59.8727 60 59.7597 60H36.0692C35.9552 60 35.8942 59.936 35.8632 59.881C35.8322 59.826 35.8072 59.741 35.8642 59.643L47.709 39.337C47.766 39.239 47.852 39.219 47.914 39.219C47.977 39.219 48.062 39.24 48.12 39.337L59.9647 59.643C60.0207 59.741 59.9967 59.826 59.9647 59.881Z"/>
</mask>
<path d="M61.6917 58.635L49.8479 38.329C49.443 37.634 48.72 37.219 47.914 37.219C47.109 37.219 46.387 37.634 45.981 38.329L34.1363 58.635C33.7273 59.335 33.7243 60.174 34.1283 60.877C34.5323 61.58 35.2573 62 36.0682 62H59.7587C60.5697 62 61.2947 61.58 61.6977 60.877C62.1027 60.174 62.1007 59.336 61.6917 58.635ZM59.9647 59.881C59.9347 59.936 59.8727 60 59.7597 60H36.0692C35.9552 60 35.8942 59.936 35.8632 59.881C35.8322 59.826 35.8072 59.741 35.8642 59.643L47.709 39.337C47.766 39.239 47.852 39.219 47.914 39.219C47.977 39.219 48.062 39.24 48.12 39.337L59.9647 59.643C60.0207 59.741 59.9967 59.826 59.9647 59.881Z" fill="url(#paint0_linear)"/>
<path d="M61.6917 58.635L59.1003 60.1465L59.1005 60.1468L61.6917 58.635ZM49.8479 38.329L47.2559 39.8394L47.2565 39.8405L49.8479 38.329ZM45.981 38.329L43.3906 36.8158L43.3897 36.8174L45.981 38.329ZM34.1363 58.635L36.7266 60.1484L36.7276 60.1466L34.1363 58.635ZM61.6977 60.877L59.0982 59.3795L59.095 59.385L61.6977 60.877ZM59.9647 59.881L57.3717 58.3724L57.3509 58.4081L57.331 58.4445L59.9647 59.881ZM35.8642 59.643L33.2729 58.1314L33.271 58.1347L35.8642 59.643ZM47.709 39.337L50.3004 40.8486L50.3023 40.8453L47.709 39.337ZM48.12 39.337L50.7113 37.8254L50.7031 37.8114L50.6948 37.7974L48.12 39.337ZM59.9647 59.643L62.5695 58.1546L62.5628 58.143L62.5561 58.1314L59.9647 59.643ZM64.2831 57.1235L52.4394 36.8175L47.2565 39.8405L59.1003 60.1465L64.2831 57.1235ZM52.44 36.8186C51.4963 35.1991 49.785 34.219 47.914 34.219V40.219C47.7972 40.219 47.664 40.1876 47.5379 40.1152C47.4118 40.0429 47.3162 39.9428 47.2559 39.8394L52.44 36.8186ZM47.914 34.219C46.0411 34.219 44.3337 35.2013 43.3906 36.8158L48.5714 39.8422C48.5125 39.9432 48.4181 40.0424 48.2921 40.1148C48.1661 40.1872 48.0321 40.219 47.914 40.219V34.219ZM43.3897 36.8174L31.5449 57.1234L36.7276 60.1466L48.5724 39.8406L43.3897 36.8174ZM31.546 57.1216C30.5945 58.75 30.5875 60.7367 31.5272 62.3718L36.7294 59.3822C36.7884 59.485 36.8279 59.6183 36.8274 59.7656C36.8269 59.9129 36.7864 60.046 36.7266 60.1484L31.546 57.1216ZM31.5272 62.3718C32.4657 64.005 34.1822 65 36.0682 65V59C36.186 59 36.3211 59.032 36.4488 59.1059C36.5765 59.1798 36.6711 59.2809 36.7294 59.3822L31.5272 62.3718ZM36.0682 65H59.7587V59H36.0682V65ZM59.7587 65C61.6442 65 63.3624 64.0053 64.3004 62.369L59.095 59.385C59.154 59.2822 59.2494 59.1804 59.3776 59.1062C59.5057 59.0319 59.6411 59 59.7587 59V65ZM64.2972 62.3745C65.2388 60.7401 65.2343 58.7539 64.2829 57.1232L59.1005 60.1468C59.0411 60.0451 59.0003 59.9116 59 59.7631C58.9996 59.6145 59.0396 59.4812 59.0982 59.3795L64.2972 62.3745ZM57.331 58.4445C57.4906 58.1519 57.7603 57.7861 58.1973 57.4866C58.6647 57.1663 59.2125 57 59.7597 57V63C61.2568 63 62.1957 62.0559 62.5984 61.3175L57.331 58.4445ZM59.7597 57H36.0692V63H59.7597V57ZM36.0692 57C36.6127 57 37.1611 57.1644 37.6312 57.4866C38.0692 57.7868 38.3298 58.1474 38.4767 58.408L33.2498 61.354C33.6385 62.0438 34.5593 63 36.0692 63V57ZM38.4767 58.408C38.6097 58.6439 38.7839 59.0367 38.8225 59.5559C38.8641 60.1161 38.7351 60.6741 38.4575 61.1513L33.271 58.1347C32.5049 59.4519 32.8922 60.7195 33.2498 61.354L38.4767 58.408ZM38.4556 61.1546L50.3003 40.8486L45.1176 37.8254L33.2729 58.1314L38.4556 61.1546ZM50.3023 40.8453C50.0251 41.3217 49.6041 41.7105 49.0951 41.9519C48.6228 42.1759 48.1918 42.219 47.914 42.219V36.219C47.1737 36.219 45.8807 36.5134 45.1157 37.8287L50.3023 40.8453ZM47.914 42.219C47.6236 42.219 47.193 42.1718 46.7258 41.9486C46.2262 41.71 45.8174 41.3319 45.5451 40.8766L50.6948 37.7974C49.9397 36.5345 48.6893 36.219 47.914 36.219V42.219ZM45.5286 40.8486L57.3734 61.1546L62.5561 58.1314L50.7113 37.8254L45.5286 40.8486ZM57.36 61.1314C57.0923 60.663 56.9646 60.1133 57.006 59.5558C57.0447 59.0352 57.2203 58.6326 57.3717 58.3724L62.5578 61.3897C62.9552 60.7066 63.3077 59.4465 62.5695 58.1546L57.36 61.1314Z" fill="url(#paint1_linear)" mask="url(#path-1-inside-1)"/>
<mask id="path-3-inside-2" fill="white">
<path d="M47.999 43.9999C47.447 43.9999 46.999 44.4469 46.999 44.9999V52.9999C46.999 53.5529 47.447 53.9999 47.999 53.9999C48.551 53.9999 48.999 53.5529 48.999 52.9999V44.9999C48.999 44.4469 48.551 43.9999 47.999 43.9999Z"/>
</mask>
<path d="M47.999 43.9999C47.447 43.9999 46.999 44.4469 46.999 44.9999V52.9999C46.999 53.5529 47.447 53.9999 47.999 53.9999C48.551 53.9999 48.999 53.5529 48.999 52.9999V44.9999C48.999 44.4469 48.551 43.9999 47.999 43.9999Z" fill="url(#paint2_linear)"/>
<path d="M47.999 40.9999C45.7921 40.9999 43.999 42.7881 43.999 44.9999H49.999C49.999 46.1056 49.102 46.9999 47.999 46.9999V40.9999ZM43.999 44.9999V52.9999H49.999V44.9999H43.999ZM43.999 52.9999C43.999 55.2116 45.7921 56.9999 47.999 56.9999V50.9999C49.102 50.9999 49.999 51.8941 49.999 52.9999H43.999ZM47.999 56.9999C50.206 56.9999 51.999 55.2116 51.999 52.9999H45.999C45.999 51.8941 46.896 50.9999 47.999 50.9999V56.9999ZM51.999 52.9999V44.9999H45.999V52.9999H51.999ZM51.999 44.9999C51.999 42.7881 50.206 40.9999 47.999 40.9999V46.9999C46.896 46.9999 45.999 46.1056 45.999 44.9999H51.999Z" fill="#02861F" fill-opacity="0.8" mask="url(#path-3-inside-2)"/>
<path d="M47.999 40.9999C45.7921 40.9999 43.999 42.7881 43.999 44.9999H49.999C49.999 46.1056 49.102 46.9999 47.999 46.9999V40.9999ZM43.999 44.9999V52.9999H49.999V44.9999H43.999ZM43.999 52.9999C43.999 55.2116 45.7921 56.9999 47.999 56.9999V50.9999C49.102 50.9999 49.999 51.8941 49.999 52.9999H43.999ZM47.999 56.9999C50.206 56.9999 51.999 55.2116 51.999 52.9999H45.999C45.999 51.8941 46.896 50.9999 47.999 50.9999V56.9999ZM51.999 52.9999V44.9999H45.999V52.9999H51.999ZM51.999 44.9999C51.999 42.7881 50.206 40.9999 47.999 40.9999V46.9999C46.896 46.9999 45.999 46.1056 45.999 44.9999H51.999Z" fill="url(#paint3_radial)" mask="url(#path-3-inside-2)"/>
<path d="M48.376 57.3329C48.3703 57.3395 48.3644 57.3462 48.3583 57.3527L48.0374 57.016L48.0429 57.0108L48.0479 57.006L48.3812 56.6923C48.4191 56.7326 48.446 56.7757 48.4645 56.8209C48.4831 56.8662 48.499 56.928 48.499 57.006C48.499 57.1132 48.4628 57.2305 48.376 57.3329ZM48.2435 57.2823L48.3383 57.3716C48.3366 57.3731 48.3348 57.3747 48.333 57.3762C48.2029 57.4887 48.072 57.5118 47.999 57.5123C47.9982 57.5123 47.9973 57.5123 47.9965 57.5123C47.9157 57.5123 47.7871 57.4858 47.6639 57.3676L47.999 57.0521L48.2435 57.2823ZM47.9607 57.016L47.6441 57.348C47.5427 57.2455 47.499 57.1252 47.499 57.006C47.499 56.928 47.5149 56.8662 47.5335 56.8209C47.552 56.7757 47.5789 56.7326 47.6168 56.6923L47.9501 57.006L47.9607 57.016ZM47.999 56.9758L47.9088 56.8812L47.674 56.6348C47.7142 56.5965 47.7581 56.5685 47.8053 56.5489C47.8526 56.5293 47.9174 56.5123 47.999 56.5123C48.0806 56.5123 48.1454 56.5293 48.1927 56.5489C48.2399 56.5685 48.2838 56.5965 48.3241 56.6348L48.0027 56.9719L47.999 56.9758Z" fill="url(#paint4_linear)" stroke="url(#paint5_linear)" stroke-width="3"/>
<mask id="path-6-inside-3" fill="white">
<path d="M35.9992 31.8788C35.9992 30.0198 34.7192 28.4678 32.9992 28.0208V17.8788C32.9992 17.3258 32.5512 16.8788 31.9993 16.8788C31.4473 16.8788 30.9993 17.3258 30.9993 17.8788V28.0208C29.6003 28.3848 28.5053 29.4798 28.1413 30.8788H20.9995C20.4475 30.8788 19.9995 31.3258 19.9995 31.8788C19.9995 32.4318 20.4475 32.8788 20.9995 32.8788H28.1413C28.5883 34.5998 30.1413 35.8788 31.9993 35.8788C34.2052 35.8788 35.9992 34.0848 35.9992 31.8788ZM31.9993 33.8788C30.8963 33.8788 29.9993 32.9818 29.9993 31.8788C29.9993 30.7758 30.8963 29.8788 31.9993 29.8788C33.1022 29.8788 33.9992 30.7758 33.9992 31.8788C33.9992 32.9818 33.1022 33.8788 31.9993 33.8788Z"/>
</mask>
<path d="M35.9992 31.8788C35.9992 30.0198 34.7192 28.4678 32.9992 28.0208V17.8788C32.9992 17.3258 32.5512 16.8788 31.9993 16.8788C31.4473 16.8788 30.9993 17.3258 30.9993 17.8788V28.0208C29.6003 28.3848 28.5053 29.4798 28.1413 30.8788H20.9995C20.4475 30.8788 19.9995 31.3258 19.9995 31.8788C19.9995 32.4318 20.4475 32.8788 20.9995 32.8788H28.1413C28.5883 34.5998 30.1413 35.8788 31.9993 35.8788C34.2052 35.8788 35.9992 34.0848 35.9992 31.8788ZM31.9993 33.8788C30.8963 33.8788 29.9993 32.9818 29.9993 31.8788C29.9993 30.7758 30.8963 29.8788 31.9993 29.8788C33.1022 29.8788 33.9992 30.7758 33.9992 31.8788C33.9992 32.9818 33.1022 33.8788 31.9993 33.8788Z" fill="url(#paint6_linear)"/>
<path d="M32.9992 28.0208H29.9992V30.3408L32.2446 30.9243L32.9992 28.0208ZM30.9993 28.0208L31.7547 30.9241L33.9993 30.3401V28.0208H30.9993ZM28.1413 30.8788V33.8788H30.4607L31.0447 31.6342L28.1413 30.8788ZM28.1413 32.8788L31.045 32.1246L30.4617 29.8788H28.1413V32.8788ZM31.9993 35.8788V32.8788V35.8788ZM38.9992 31.8788C38.9992 28.5982 36.7417 25.8938 33.7538 25.1172L32.2446 30.9243C32.6967 31.0418 32.9992 31.4414 32.9992 31.8788H38.9992ZM35.9992 28.0208V17.8788H29.9992V28.0208H35.9992ZM35.9992 17.8788C35.9992 15.667 34.2062 13.8788 31.9993 13.8788V19.8788C30.8963 19.8788 29.9992 18.9845 29.9992 17.8788H35.9992ZM31.9993 13.8788C29.7923 13.8788 27.9993 15.667 27.9993 17.8788H33.9993C33.9993 18.9845 33.1022 19.8788 31.9993 19.8788V13.8788ZM27.9993 17.8788V28.0208H33.9993V17.8788H27.9993ZM30.2439 25.1175C27.7925 25.7553 25.8758 27.6721 25.238 30.1234L31.0447 31.6342C31.1349 31.2875 31.4081 31.0143 31.7547 30.9241L30.2439 25.1175ZM28.1413 27.8788H20.9995V33.8788H28.1413V27.8788ZM20.9995 27.8788C18.7925 27.8788 16.9995 29.667 16.9995 31.8788H22.9995C22.9995 32.9845 22.1025 33.8788 20.9995 33.8788V27.8788ZM16.9995 31.8788C16.9995 34.0905 18.7925 35.8788 20.9995 35.8788V29.8788C22.1025 29.8788 22.9995 30.773 22.9995 31.8788H16.9995ZM20.9995 35.8788H28.1413V29.8788H20.9995V35.8788ZM25.2377 33.633C26.0144 36.6234 28.7208 38.8788 31.9993 38.8788V32.8788C31.5618 32.8788 31.1623 32.5762 31.045 32.1246L25.2377 33.633ZM31.9993 38.8788C35.8621 38.8788 38.9992 35.7416 38.9992 31.8788H32.9992C32.9992 32.428 32.5483 32.8788 31.9993 32.8788V38.8788ZM31.9993 30.8788C32.5532 30.8788 32.9993 31.325 32.9993 31.8788H26.9993C26.9993 34.6386 29.2394 36.8788 31.9993 36.8788V30.8788ZM32.9993 31.8788C32.9993 32.4326 32.5532 32.8788 31.9993 32.8788V26.8788C29.2394 26.8788 26.9993 29.119 26.9993 31.8788H32.9993ZM31.9993 32.8788C31.4453 32.8788 30.9992 32.4326 30.9992 31.8788H36.9992C36.9992 29.119 34.7592 26.8788 31.9993 26.8788V32.8788ZM30.9992 31.8788C30.9992 31.325 31.4453 30.8788 31.9993 30.8788V36.8788C34.7592 36.8788 36.9992 34.6386 36.9992 31.8788H30.9992Z" fill="#02861F" fill-opacity="0.8" mask="url(#path-6-inside-3)"/>
<path d="M32.9992 28.0208H29.9992V30.3408L32.2446 30.9243L32.9992 28.0208ZM30.9993 28.0208L31.7547 30.9241L33.9993 30.3401V28.0208H30.9993ZM28.1413 30.8788V33.8788H30.4607L31.0447 31.6342L28.1413 30.8788ZM28.1413 32.8788L31.045 32.1246L30.4617 29.8788H28.1413V32.8788ZM31.9993 35.8788V32.8788V35.8788ZM38.9992 31.8788C38.9992 28.5982 36.7417 25.8938 33.7538 25.1172L32.2446 30.9243C32.6967 31.0418 32.9992 31.4414 32.9992 31.8788H38.9992ZM35.9992 28.0208V17.8788H29.9992V28.0208H35.9992ZM35.9992 17.8788C35.9992 15.667 34.2062 13.8788 31.9993 13.8788V19.8788C30.8963 19.8788 29.9992 18.9845 29.9992 17.8788H35.9992ZM31.9993 13.8788C29.7923 13.8788 27.9993 15.667 27.9993 17.8788H33.9993C33.9993 18.9845 33.1022 19.8788 31.9993 19.8788V13.8788ZM27.9993 17.8788V28.0208H33.9993V17.8788H27.9993ZM30.2439 25.1175C27.7925 25.7553 25.8758 27.6721 25.238 30.1234L31.0447 31.6342C31.1349 31.2875 31.4081 31.0143 31.7547 30.9241L30.2439 25.1175ZM28.1413 27.8788H20.9995V33.8788H28.1413V27.8788ZM20.9995 27.8788C18.7925 27.8788 16.9995 29.667 16.9995 31.8788H22.9995C22.9995 32.9845 22.1025 33.8788 20.9995 33.8788V27.8788ZM16.9995 31.8788C16.9995 34.0905 18.7925 35.8788 20.9995 35.8788V29.8788C22.1025 29.8788 22.9995 30.773 22.9995 31.8788H16.9995ZM20.9995 35.8788H28.1413V29.8788H20.9995V35.8788ZM25.2377 33.633C26.0144 36.6234 28.7208 38.8788 31.9993 38.8788V32.8788C31.5618 32.8788 31.1623 32.5762 31.045 32.1246L25.2377 33.633ZM31.9993 38.8788C35.8621 38.8788 38.9992 35.7416 38.9992 31.8788H32.9992C32.9992 32.428 32.5483 32.8788 31.9993 32.8788V38.8788ZM31.9993 30.8788C32.5532 30.8788 32.9993 31.325 32.9993 31.8788H26.9993C26.9993 34.6386 29.2394 36.8788 31.9993 36.8788V30.8788ZM32.9993 31.8788C32.9993 32.4326 32.5532 32.8788 31.9993 32.8788V26.8788C29.2394 26.8788 26.9993 29.119 26.9993 31.8788H32.9993ZM31.9993 32.8788C31.4453 32.8788 30.9992 32.4326 30.9992 31.8788H36.9992C36.9992 29.119 34.7592 26.8788 31.9993 26.8788V32.8788ZM30.9992 31.8788C30.9992 31.325 31.4453 30.8788 31.9993 30.8788V36.8788C34.7592 36.8788 36.9992 34.6386 36.9992 31.8788H30.9992Z" fill="url(#paint7_radial)" mask="url(#path-6-inside-3)"/>
<mask id="path-8-inside-4" fill="white">
<path d="M30.9995 9.87891V10.8789C30.9995 11.4319 31.4475 11.8789 31.9995 11.8789C32.5515 11.8789 32.9995 11.4319 32.9995 10.8789V9.87891C32.9995 9.32591 32.5515 8.87891 31.9995 8.87891C31.4475 8.87891 30.9995 9.32591 30.9995 9.87891Z"/>
</mask>
<path d="M30.9995 9.87891V10.8789C30.9995 11.4319 31.4475 11.8789 31.9995 11.8789C32.5515 11.8789 32.9995 11.4319 32.9995 10.8789V9.87891C32.9995 9.32591 32.5515 8.87891 31.9995 8.87891C31.4475 8.87891 30.9995 9.32591 30.9995 9.87891Z" fill="url(#paint8_linear)"/>
<path d="M27.9995 9.87891V10.8789H33.9995V9.87891H27.9995ZM27.9995 10.8789C27.9995 13.0907 29.7925 14.8789 31.9995 14.8789V8.87891C33.1025 8.87891 33.9995 9.77316 33.9995 10.8789H27.9995ZM31.9995 14.8789C34.2064 14.8789 35.9995 13.0907 35.9995 10.8789H29.9995C29.9995 9.77316 30.8965 8.87891 31.9995 8.87891V14.8789ZM35.9995 10.8789V9.87891H29.9995V10.8789H35.9995ZM35.9995 9.87891C35.9995 7.66716 34.2064 5.87891 31.9995 5.87891V11.8789C30.8965 11.8789 29.9995 10.9847 29.9995 9.87891H35.9995ZM31.9995 5.87891C29.7925 5.87891 27.9995 7.66716 27.9995 9.87891H33.9995C33.9995 10.9847 33.1025 11.8789 31.9995 11.8789V5.87891Z" fill="url(#paint9_linear)" mask="url(#path-8-inside-4)"/>
<path d="M53.499 31.8789C53.499 31.8808 53.499 31.8827 53.499 31.8846C53.499 31.8827 53.499 31.8808 53.499 31.8789C53.499 31.877 53.499 31.8751 53.499 31.8733C53.499 31.8751 53.499 31.877 53.499 31.8789Z" fill="url(#paint10_linear)" stroke="url(#paint11_linear)" stroke-width="3"/>
<path d="M10.4998 31.8789C10.4998 31.8808 10.4997 31.8827 10.4997 31.8846C10.4997 31.8827 10.4997 31.8808 10.4997 31.8789C10.4997 31.877 10.4997 31.8751 10.4997 31.8732C10.4997 31.8751 10.4998 31.877 10.4998 31.8789Z" fill="url(#paint12_linear)" stroke="url(#paint13_linear)" stroke-width="3"/>
<mask id="path-12-inside-5" fill="white">
<path d="M46.9562 15.6464L46.1728 16.4298C45.7396 16.8631 45.7396 17.5634 46.1728 17.9967C46.3889 18.2128 46.6726 18.3214 46.9562 18.3214C47.2399 18.3214 47.5235 18.2128 47.7396 17.9967L48.523 17.2133C48.9562 16.78 48.9562 16.0797 48.523 15.6464C48.0897 15.2131 47.3895 15.2131 46.9562 15.6464Z"/>
</mask>
<path d="M46.9562 15.6464L46.1728 16.4298C45.7396 16.8631 45.7396 17.5634 46.1728 17.9967C46.3889 18.2128 46.6726 18.3214 46.9562 18.3214C47.2399 18.3214 47.5235 18.2128 47.7396 17.9967L48.523 17.2133C48.9562 16.78 48.9562 16.0797 48.523 15.6464C48.0897 15.2131 47.3895 15.2131 46.9562 15.6464Z" fill="url(#paint14_linear)"/>
<path d="M46.9562 15.6464L49.0776 17.7676L49.0776 17.7676L46.9562 15.6464ZM46.1728 16.4298L44.0514 14.3086L44.0514 14.3086L46.1728 16.4298ZM44.8348 13.5251L44.0514 14.3086L48.2942 18.551L49.0776 17.7676L44.8348 13.5251ZM44.0514 14.3086C42.4467 15.9134 42.4467 18.5131 44.0514 20.1179L48.2942 15.8755C49.0325 16.6138 49.0325 17.8128 48.2942 18.551L44.0514 14.3086ZM44.0514 20.1179C44.8514 20.918 45.9074 21.3214 46.9562 21.3214V15.3214C47.4377 15.3214 47.9264 15.5077 48.2942 15.8755L44.0514 20.1179ZM46.9562 21.3214C48.005 21.3214 49.0611 20.918 49.861 20.1179L45.6182 15.8755C45.986 15.5077 46.4747 15.3214 46.9562 15.3214V21.3214ZM49.861 20.1179L50.6444 19.3345L46.4016 15.092L45.6182 15.8755L49.861 20.1179ZM50.6444 19.3345C52.2491 17.7297 52.2491 15.13 50.6444 13.5251L46.4016 17.7676C45.6633 17.0293 45.6633 15.8303 46.4016 15.092L50.6444 19.3345ZM50.6444 13.5251C49.0396 11.9202 46.4396 11.9202 44.8348 13.5251L49.0776 17.7676C48.3393 18.506 47.1399 18.506 46.4016 17.7676L50.6444 13.5251Z" fill="url(#paint15_linear)" mask="url(#path-12-inside-5)"/>
<mask id="path-14-inside-6" fill="white">
<path d="M16.5517 46.0515L15.7683 46.8351C15.335 47.2684 15.335 47.9689 15.7683 48.4022C15.9844 48.6183 16.268 48.7269 16.5517 48.7269C16.8353 48.7269 17.119 48.6183 17.335 48.4022L18.1184 47.6186C18.5517 47.1853 18.5517 46.4849 18.1184 46.0515C17.6852 45.6182 16.9838 45.6193 16.5517 46.0515Z"/>
</mask>
<path d="M16.5517 46.0515L15.7683 46.8351C15.335 47.2684 15.335 47.9689 15.7683 48.4022C15.9844 48.6183 16.268 48.7269 16.5517 48.7269C16.8353 48.7269 17.119 48.6183 17.335 48.4022L18.1184 47.6186C18.5517 47.1853 18.5517 46.4849 18.1184 46.0515C17.6852 45.6182 16.9838 45.6193 16.5517 46.0515Z" fill="url(#paint16_linear)"/>
<path d="M16.5517 46.0515L14.4301 43.9304L14.4301 43.9304L16.5517 46.0515ZM15.7683 46.8351L17.8899 48.9562L17.8899 48.9562L15.7683 46.8351ZM17.335 48.4022L15.2135 46.2811L15.2135 46.2811L17.335 48.4022ZM18.1184 47.6186L20.24 49.7397L20.24 49.7397L18.1184 47.6186ZM14.4301 43.9304L13.6467 44.714L17.8899 48.9562L18.6732 48.1726L14.4301 43.9304ZM13.6467 44.714C12.0422 46.3189 12.0422 48.9184 13.6467 50.5233L17.8899 46.2811C18.6279 47.0193 18.6279 48.218 17.8899 48.9562L13.6467 44.714ZM13.6467 50.5233C14.4466 51.3233 15.5027 51.7269 16.5517 51.7269V45.7269C17.0333 45.7269 17.5221 45.9133 17.8899 46.2811L13.6467 50.5233ZM16.5517 51.7269C17.6006 51.7269 18.6567 51.3233 19.4566 50.5233L15.2135 46.2811C15.5812 45.9133 16.07 45.7269 16.5517 45.7269V51.7269ZM19.4566 50.5233L20.24 49.7397L15.9969 45.4976L15.2135 46.2811L19.4566 50.5233ZM20.24 49.7397C21.8445 48.1349 21.8445 45.5353 20.24 43.9304L15.9969 48.1726C15.2589 47.4344 15.2589 46.2357 15.9969 45.4976L20.24 49.7397ZM20.24 43.9304C18.6332 42.3232 16.0319 42.3283 14.4301 43.9304L18.6732 48.1726C17.9357 48.9103 16.7372 48.9131 15.9969 48.1726L20.24 43.9304Z" fill="url(#paint17_linear)" mask="url(#path-14-inside-6)"/>
<mask id="path-16-inside-7" fill="white">
<path d="M18.1184 16.4298L17.335 15.6464C16.9018 15.2131 16.2015 15.2131 15.7683 15.6464C15.335 16.0797 15.335 16.78 15.7683 17.2133L16.5517 17.9967C16.7677 18.2128 17.0514 18.3214 17.335 18.3214C17.6187 18.3214 17.9024 18.2128 18.1184 17.9967C18.5517 17.5634 18.5517 16.8631 18.1184 16.4298Z"/>
</mask>
<path d="M18.1184 16.4298L17.335 15.6464C16.9018 15.2131 16.2015 15.2131 15.7683 15.6464C15.335 16.0797 15.335 16.78 15.7683 17.2133L16.5517 17.9967C16.7677 18.2128 17.0514 18.3214 17.335 18.3214C17.6187 18.3214 17.9024 18.2128 18.1184 17.9967C18.5517 17.5634 18.5517 16.8631 18.1184 16.4298Z" fill="url(#paint18_linear)"/>
<path d="M18.1184 16.4298L20.2398 14.3086V14.3086L18.1184 16.4298ZM17.335 15.6464L15.2136 17.7676L15.2136 17.7676L17.335 15.6464ZM15.7683 17.2133L17.8897 15.092L17.8897 15.092L15.7683 17.2133ZM16.5517 17.9967L14.4303 20.1179L14.4303 20.1179L16.5517 17.9967ZM20.2398 14.3086L19.4565 13.5251L15.2136 17.7676L15.997 18.551L20.2398 14.3086ZM19.4565 13.5251C17.8516 11.9202 15.2517 11.9202 13.6469 13.5251L17.8897 17.7676C17.1514 18.506 15.952 18.506 15.2136 17.7676L19.4565 13.5251ZM13.6469 13.5251C12.0422 15.13 12.0422 17.7297 13.6469 19.3345L17.8897 15.092C18.6279 15.8303 18.6279 17.0293 17.8897 17.7676L13.6469 13.5251ZM13.6469 19.3345L14.4303 20.1179L18.6731 15.8755L17.8897 15.092L13.6469 19.3345ZM14.4303 20.1179C15.2302 20.918 16.2863 21.3214 17.335 21.3214V15.3214C17.8165 15.3214 18.3053 15.5077 18.6731 15.8755L14.4303 20.1179ZM17.335 21.3214C18.3838 21.3214 19.4399 20.918 20.2398 20.1179L15.997 15.8755C16.3648 15.5077 16.8536 15.3214 17.335 15.3214V21.3214ZM20.2398 20.1179C21.8445 18.5131 21.8445 15.9134 20.2398 14.3086L15.997 18.551C15.2588 17.8128 15.2588 16.6138 15.997 15.8755L20.2398 20.1179Z" fill="url(#paint19_linear)" mask="url(#path-16-inside-7)"/>
<path d="M25.2425 60.0006C12.7348 56.8581 3.99996 45.5205 3.99996 32.431C3.99996 16.7702 16.5607 4.02874 31.9994 4.02874C47.438 4.02874 59.9988 16.7702 59.9988 32.431C59.9988 35.9489 59.3648 39.3927 58.1158 42.6701C57.9168 43.1925 58.1728 43.7798 58.6878 43.9817C59.1998 44.1835 59.7818 43.9228 59.9808 43.4014C61.3198 39.8897 61.9987 36.1994 61.9987 32.431C61.9987 15.6514 48.541 2 31.9994 2C15.4577 2 2 15.6514 2 32.431C2 46.4547 11.3598 58.6028 24.7615 61.9705C24.8425 61.9908 24.9235 61.9999 25.0035 61.9999C25.4525 61.9999 25.8605 61.6905 25.9735 61.229C26.1055 60.6853 25.7785 60.1355 25.2425 60.0006Z" fill="url(#paint20_linear)"/>
<path d="M25.2425 60.0006C12.7348 56.8581 3.99996 45.5205 3.99996 32.431C3.99996 16.7702 16.5607 4.02874 31.9994 4.02874C47.438 4.02874 59.9988 16.7702 59.9988 32.431C59.9988 35.9489 59.3648 39.3927 58.1158 42.6701C57.9168 43.1925 58.1728 43.7798 58.6878 43.9817C59.1998 44.1835 59.7818 43.9228 59.9808 43.4014C61.3198 39.8897 61.9987 36.1994 61.9987 32.431C61.9987 15.6514 48.541 2 31.9994 2C15.4577 2 2 15.6514 2 32.431C2 46.4547 11.3598 58.6028 24.7615 61.9705C24.8425 61.9908 24.9235 61.9999 25.0035 61.9999C25.4525 61.9999 25.8605 61.6905 25.9735 61.229C26.1055 60.6853 25.7785 60.1355 25.2425 60.0006Z" stroke="#02861F" stroke-opacity="0.8" stroke-width="3"/>
<path d="M25.2425 60.0006C12.7348 56.8581 3.99996 45.5205 3.99996 32.431C3.99996 16.7702 16.5607 4.02874 31.9994 4.02874C47.438 4.02874 59.9988 16.7702 59.9988 32.431C59.9988 35.9489 59.3648 39.3927 58.1158 42.6701C57.9168 43.1925 58.1728 43.7798 58.6878 43.9817C59.1998 44.1835 59.7818 43.9228 59.9808 43.4014C61.3198 39.8897 61.9987 36.1994 61.9987 32.431C61.9987 15.6514 48.541 2 31.9994 2C15.4577 2 2 15.6514 2 32.431C2 46.4547 11.3598 58.6028 24.7615 61.9705C24.8425 61.9908 24.9235 61.9999 25.0035 61.9999C25.4525 61.9999 25.8605 61.6905 25.9735 61.229C26.1055 60.6853 25.7785 60.1355 25.2425 60.0006Z" stroke="url(#paint21_radial)" stroke-width="3"/>
<defs>
<linearGradient id="paint0_linear" x1="33.8274" y1="62.0014" x2="61.9999" y2="62.0014" gradientUnits="userSpaceOnUse">
<stop stop-color="#FFB55F"/>
<stop offset="1" stop-color="#FFB015"/>
</linearGradient>
<linearGradient id="paint1_linear" x1="33.8274" y1="62.0014" x2="61.9999" y2="62.0014" gradientUnits="userSpaceOnUse">
<stop stop-color="#FFB55F"/>
<stop offset="1" stop-color="#FFB015"/>
</linearGradient>
<linearGradient id="paint2_linear" x1="46.999" y1="54.0005" x2="48.999" y2="54.0005" gradientUnits="userSpaceOnUse">
<stop stop-color="#FFB55F"/>
<stop offset="1" stop-color="#FFB015"/>
</linearGradient>
<radialGradient id="paint3_radial" cx="0" cy="0" r="1" gradientUnits="userSpaceOnUse" gradientTransform="translate(47.999 48.9999) rotate(90) scale(5 0.999979)">
<stop offset="0.286458" stop-color="#02861F"/>
<stop offset="1" stop-color="#016F19"/>
</radialGradient>
<linearGradient id="paint4_linear" x1="46.999" y1="58.0124" x2="48.999" y2="58.0124" gradientUnits="userSpaceOnUse">
<stop stop-color="#FFB55F"/>
<stop offset="1" stop-color="#FFB015"/>
</linearGradient>
<linearGradient id="paint5_linear" x1="46.999" y1="58.0124" x2="48.999" y2="58.0124" gradientUnits="userSpaceOnUse">
<stop stop-color="#FFB55F"/>
<stop offset="1" stop-color="#FFB015"/>
</linearGradient>
<linearGradient id="paint6_linear" x1="19.9995" y1="35.8799" x2="35.9992" y2="35.8799" gradientUnits="userSpaceOnUse">
<stop stop-color="#FFB55F"/>
<stop offset="1" stop-color="#FFB015"/>
</linearGradient>
<radialGradient id="paint7_radial" cx="0" cy="0" r="1" gradientUnits="userSpaceOnUse" gradientTransform="translate(27.9993 26.3788) rotate(90) scale(9.50001 7.99983)">
<stop offset="0.286458" stop-color="#02861F"/>
<stop offset="1" stop-color="#016F19"/>
</radialGradient>
<linearGradient id="paint8_linear" x1="30.9995" y1="11.8791" x2="32.9995" y2="11.8791" gradientUnits="userSpaceOnUse">
<stop stop-color="#FFB55F"/>
<stop offset="1" stop-color="#FFB015"/>
</linearGradient>
<linearGradient id="paint9_linear" x1="30.9995" y1="11.8791" x2="32.9995" y2="11.8791" gradientUnits="userSpaceOnUse">
<stop stop-color="#FFB55F"/>
<stop offset="1" stop-color="#FFB015"/>
</linearGradient>
<linearGradient id="paint10_linear" x1="51.999" y1="32.879" x2="54.999" y2="32.879" gradientUnits="userSpaceOnUse">
<stop stop-color="#FFB55F"/>
<stop offset="1" stop-color="#FFB015"/>
</linearGradient>
<linearGradient id="paint11_linear" x1="51.999" y1="32.879" x2="54.999" y2="32.879" gradientUnits="userSpaceOnUse">
<stop stop-color="#FFB55F"/>
<stop offset="1" stop-color="#FFB015"/>
</linearGradient>
<linearGradient id="paint12_linear" x1="8.99975" y1="32.879" x2="11.9997" y2="32.879" gradientUnits="userSpaceOnUse">
<stop stop-color="#FFB55F"/>
<stop offset="1" stop-color="#FFB015"/>
</linearGradient>
<linearGradient id="paint13_linear" x1="8.99975" y1="32.879" x2="11.9997" y2="32.879" gradientUnits="userSpaceOnUse">
<stop stop-color="#FFB55F"/>
<stop offset="1" stop-color="#FFB015"/>
</linearGradient>
<linearGradient id="paint14_linear" x1="45.8479" y1="18.3216" x2="48.8479" y2="18.3216" gradientUnits="userSpaceOnUse">
<stop stop-color="#FFB55F"/>
<stop offset="1" stop-color="#FFB015"/>
</linearGradient>
<linearGradient id="paint15_linear" x1="45.8479" y1="18.3216" x2="48.8479" y2="18.3216" gradientUnits="userSpaceOnUse">
<stop stop-color="#FFB55F"/>
<stop offset="1" stop-color="#FFB015"/>
</linearGradient>
<linearGradient id="paint16_linear" x1="15.4434" y1="48.7271" x2="18.4434" y2="48.7271" gradientUnits="userSpaceOnUse">
<stop stop-color="#FFB55F"/>
<stop offset="1" stop-color="#FFB015"/>
</linearGradient>
<linearGradient id="paint17_linear" x1="15.4434" y1="48.7271" x2="18.4434" y2="48.7271" gradientUnits="userSpaceOnUse">
<stop stop-color="#FFB55F"/>
<stop offset="1" stop-color="#FFB015"/>
</linearGradient>
<linearGradient id="paint18_linear" x1="15.4434" y1="18.3216" x2="18.4434" y2="18.3216" gradientUnits="userSpaceOnUse">
<stop stop-color="#FFB55F"/>
<stop offset="1" stop-color="#FFB015"/>
</linearGradient>
<linearGradient id="paint19_linear" x1="15.4434" y1="18.3216" x2="18.4434" y2="18.3216" gradientUnits="userSpaceOnUse">
<stop stop-color="#FFB55F"/>
<stop offset="1" stop-color="#FFB015"/>
</linearGradient>
<linearGradient id="paint20_linear" x1="1.99998" y1="62.0034" x2="61.9987" y2="62.0034" gradientUnits="userSpaceOnUse">
<stop stop-color="#FFB55F"/>
<stop offset="1" stop-color="#FFB015"/>
</linearGradient>
<radialGradient id="paint21_radial" cx="0" cy="0" r="1" gradientUnits="userSpaceOnUse" gradientTransform="translate(31.9994 31.9999) rotate(90) scale(29.9999 29.9994)">
<stop offset="0.286458" stop-color="#02861F"/>
<stop offset="1" stop-color="#016F19"/>
</radialGradient>
</defs>
</svg>
