<svg width="30" height="30" viewBox="0 0 30 30" fill="none" xmlns="http://www.w3.org/2000/svg">
<circle cx="15" cy="15" r="14.241" stroke="#2F80ED" stroke-width="1.51795"/>
<path d="M21.4197 7.34745C21.2151 7.36234 21.0142 7.41035 20.8249 7.48961H20.8224C20.6407 7.56165 19.7769 7.92502 18.4636 8.47582L13.7576 10.4578C10.3808 11.8794 7.06129 13.2794 7.06129 13.2794L7.10082 13.2641C7.10082 13.2641 6.87196 13.3393 6.63289 13.5031C6.4852 13.5971 6.35811 13.7201 6.25932 13.8646C6.14202 14.0367 6.04767 14.3 6.08273 14.5722C6.14011 15.0325 6.43846 15.3085 6.65266 15.4609C6.86941 15.6152 7.07596 15.6872 7.07596 15.6872H7.08106L10.194 16.7359C10.3336 17.1841 11.1426 19.8437 11.337 20.4564C11.4518 20.8223 11.5633 21.0511 11.7029 21.2258C11.7705 21.3151 11.8496 21.3897 11.9445 21.4496C11.9939 21.4783 12.0466 21.501 12.1014 21.5172L12.0695 21.5095C12.0791 21.5121 12.0867 21.5197 12.0937 21.5223C12.1192 21.5293 12.1364 21.5318 12.1689 21.5369C12.6617 21.6861 13.0576 21.3801 13.0576 21.3801L13.0799 21.3622L14.9178 19.6888L17.9982 22.052L18.0684 22.082C18.7103 22.3638 19.3606 22.2069 19.7042 21.9303C20.0504 21.6517 20.1849 21.2953 20.1849 21.2953L20.2072 21.2379L22.5876 9.0432C22.6552 8.7423 22.6724 8.46052 22.5978 8.18704C22.5209 7.91025 22.3433 7.6722 22.0999 7.51957C21.8956 7.39533 21.6586 7.33537 21.4197 7.34745ZM21.3553 8.65432C21.3528 8.69449 21.3604 8.69002 21.3426 8.76716V8.77417L18.9845 20.842C18.9743 20.8593 18.957 20.8969 18.9099 20.9345C18.8601 20.974 18.8206 20.9989 18.6134 20.9166L14.8458 18.0281L12.5699 20.1025L13.0481 17.0489L19.2038 11.3114C19.4575 11.0755 19.3727 11.0258 19.3727 11.0258C19.3905 10.7364 18.9896 10.941 18.9896 10.941L11.2274 15.7497L11.2248 15.7369L7.50436 14.4843V14.4817L7.49479 14.4798C7.50132 14.4776 7.5077 14.4751 7.51392 14.4721L7.53432 14.4619L7.55408 14.4549C7.55408 14.4549 10.8761 13.055 14.2529 11.6334C15.9436 10.9213 17.647 10.2041 18.957 9.65074C20.2671 9.10057 21.2355 8.69704 21.2903 8.67536C21.3426 8.65496 21.3177 8.65496 21.3553 8.65496V8.65432Z" fill="#2F80ED"/>
</svg>
