<svg width="30" height="30" viewBox="0 0 30 30" fill="none" xmlns="http://www.w3.org/2000/svg">
<path d="M27.6941 14.8346C27.6985 13.184 27.3741 11.549 26.7399 10.0252C26.1057 8.50141 25.1745 7.1192 24.0006 5.95913C21.6214 3.58014 18.458 2.26651 15.0872 2.26651C8.12827 2.26651 2.47088 7.90246 2.47088 14.8144C2.47078 17.1755 3.13766 19.4886 4.39468 21.4873L4.39593 21.4892L4.65258 21.8865L3.41523 26.3654L3.32765 26.6824L3.64594 26.5996L8.25656 25.399L8.63741 25.6264L8.63867 25.6271C10.5819 26.7671 12.8069 27.3772 15.0581 27.3772H15.0778H15.0825C22.0321 27.3772 27.6845 21.7413 27.6941 14.8346ZM27.6941 14.8346L27.5044 14.8341M27.6941 14.8346C27.6941 14.8345 27.6941 14.8344 27.6941 14.8343L27.5044 14.8341M27.5044 14.8341C27.495 21.6356 21.9281 27.1875 15.0825 27.1875H15.0778H15.0581C12.8409 27.1875 10.6491 26.5866 8.73469 25.4634L4.55531 21.3862C3.31731 19.4178 2.66053 17.1397 2.66062 14.8144C2.66062 8.00813 8.23219 2.45625 15.0872 2.45625C18.4078 2.45625 21.5231 3.75 23.8669 6.09375C25.0231 7.23618 25.9402 8.59742 26.5647 10.0981C27.1892 11.5987 27.5087 13.2087 27.5044 14.8341ZM21.7843 18.1477L22.0135 18.2638L22.0319 18.157C22.1202 18.1962 22.1942 18.2306 22.2574 18.2651C22.3674 18.3251 22.4119 18.3692 22.4317 18.4057L22.4327 18.4074C22.4326 18.4072 22.4326 18.4073 22.4328 18.4077C22.4337 18.4099 22.438 18.4205 22.4431 18.4436C22.449 18.4705 22.4544 18.507 22.4579 18.5536C22.4651 18.6467 22.4643 18.7707 22.4509 18.9199C22.4243 19.2179 22.3483 19.6061 22.1949 20.033L22.1947 20.0335C22.0602 20.411 21.6541 20.7983 21.1609 21.1139C20.6736 21.4258 20.1473 21.6383 19.8245 21.6918C19.1963 21.7822 18.4139 21.8184 17.5597 21.5482C17.4905 21.5245 17.4191 21.5003 17.3452 21.4752C16.8384 21.303 16.2176 21.0921 15.4455 20.7672C12.0447 19.3036 9.73252 16.0468 9.23185 15.3416C9.19198 15.2854 9.1636 15.2455 9.14707 15.2239C9.13764 15.2105 9.12572 15.1939 9.11157 15.1743C8.97806 14.9885 8.64623 14.5269 8.33208 13.9109C7.98049 13.2216 7.66068 12.3568 7.66068 11.4891C7.66068 9.87377 8.4532 9.02593 8.83995 8.61219C8.86839 8.58176 8.89464 8.55368 8.91822 8.52781C9.21803 8.21676 9.57011 8.13881 9.77625 8.13881C10.0271 8.13881 10.2671 8.13896 10.4714 8.1577L10.4801 8.15849H10.4887C10.5261 8.15849 10.5583 8.15743 10.5871 8.15648C10.6756 8.15357 10.7316 8.15172 10.8023 8.18498C10.8846 8.22368 11.0123 8.33163 11.1532 8.67539L11.1532 8.67539L11.1542 8.67778C11.2894 8.99539 11.5068 9.52208 11.7175 10.0325C11.7492 10.1092 11.7807 10.1855 11.8117 10.2607C12.0466 10.8294 12.2608 11.3465 12.3112 11.4474C12.3908 11.6066 12.4292 11.7457 12.3448 11.9321C12.3115 11.9937 12.2835 12.0478 12.2579 12.0971C12.178 12.2516 12.1215 12.3607 11.997 12.5159C11.9463 12.5759 11.8956 12.6368 11.8457 12.6969C11.702 12.8697 11.5638 13.036 11.443 13.1568C11.354 13.2458 11.2275 13.3724 11.1664 13.5398C11.0991 13.7243 11.1194 13.9286 11.2522 14.1537C11.4751 14.534 12.2285 15.7754 13.3649 16.7866C14.5786 17.875 15.6431 18.3377 16.1668 18.5653C16.269 18.6097 16.3506 18.6452 16.4087 18.6746L16.4086 18.6748L16.4168 18.6785C16.6122 18.766 16.7966 18.8194 16.9751 18.7991C17.163 18.7777 17.3113 18.6791 17.441 18.5345C17.6594 18.2908 18.3865 17.4422 18.6389 17.0626L18.6391 17.0624C18.7435 16.905 18.8241 16.8716 18.888 16.8641C18.9731 16.8542 19.0792 16.8825 19.2559 16.9454C19.4181 17.0062 19.9499 17.2556 20.5006 17.5203C21.0478 17.7832 21.5981 18.0535 21.7843 18.1477ZM7.87212 27.7511L0.270128 29.7335L2.3017 22.3497L2.32278 22.2731L2.28295 22.2043C0.991015 19.973 0.316306 17.4521 0.316306 14.8678C0.320991 6.77578 6.93474 0.189744 15.0581 0.189744C18.9544 0.189744 22.6202 1.69409 25.426 4.36064L25.4082 4.40604L25.4965 4.49388C28.2825 7.26599 29.8102 10.9535 29.8103 14.8724C29.8056 22.9701 23.1918 29.5562 15.0638 29.5562H15.0595C12.5982 29.5501 10.1766 28.9357 8.01005 27.7677L7.94435 27.7323L7.87212 27.7511Z" fill="#02861F" fill-opacity="0.8"/>
<path d="M27.6941 14.8346C27.6985 13.184 27.3741 11.549 26.7399 10.0252C26.1057 8.50141 25.1745 7.1192 24.0006 5.95913C21.6214 3.58014 18.458 2.26651 15.0872 2.26651C8.12827 2.26651 2.47088 7.90246 2.47088 14.8144C2.47078 17.1755 3.13766 19.4886 4.39468 21.4873L4.39593 21.4892L4.65258 21.8865L3.41523 26.3654L3.32765 26.6824L3.64594 26.5996L8.25656 25.399L8.63741 25.6264L8.63867 25.6271C10.5819 26.7671 12.8069 27.3772 15.0581 27.3772H15.0778H15.0825C22.0321 27.3772 27.6845 21.7413 27.6941 14.8346ZM27.6941 14.8346L27.5044 14.8341M27.6941 14.8346C27.6941 14.8345 27.6941 14.8344 27.6941 14.8343L27.5044 14.8341M27.5044 14.8341C27.495 21.6356 21.9281 27.1875 15.0825 27.1875H15.0778H15.0581C12.8409 27.1875 10.6491 26.5866 8.73469 25.4634L4.55531 21.3862C3.31731 19.4178 2.66053 17.1397 2.66062 14.8144C2.66062 8.00813 8.23219 2.45625 15.0872 2.45625C18.4078 2.45625 21.5231 3.75 23.8669 6.09375C25.0231 7.23618 25.9402 8.59742 26.5647 10.0981C27.1892 11.5987 27.5087 13.2087 27.5044 14.8341ZM21.7843 18.1477L22.0135 18.2638L22.0319 18.157C22.1202 18.1962 22.1942 18.2306 22.2574 18.2651C22.3674 18.3251 22.4119 18.3692 22.4317 18.4057L22.4327 18.4074C22.4326 18.4072 22.4326 18.4073 22.4328 18.4077C22.4337 18.4099 22.438 18.4205 22.4431 18.4436C22.449 18.4705 22.4544 18.507 22.4579 18.5536C22.4651 18.6467 22.4643 18.7707 22.4509 18.9199C22.4243 19.2179 22.3483 19.6061 22.1949 20.033L22.1947 20.0335C22.0602 20.411 21.6541 20.7983 21.1609 21.1139C20.6736 21.4258 20.1473 21.6383 19.8245 21.6918C19.1963 21.7822 18.4139 21.8184 17.5597 21.5482C17.4905 21.5245 17.4191 21.5003 17.3452 21.4752C16.8384 21.303 16.2176 21.0921 15.4455 20.7672C12.0447 19.3036 9.73252 16.0468 9.23185 15.3416C9.19198 15.2854 9.1636 15.2455 9.14707 15.2239C9.13764 15.2105 9.12572 15.1939 9.11157 15.1743C8.97806 14.9885 8.64623 14.5269 8.33208 13.9109C7.98049 13.2216 7.66068 12.3568 7.66068 11.4891C7.66068 9.87377 8.4532 9.02593 8.83995 8.61219C8.86839 8.58176 8.89464 8.55368 8.91822 8.52781C9.21803 8.21676 9.57011 8.13881 9.77625 8.13881C10.0271 8.13881 10.2671 8.13896 10.4714 8.1577L10.4801 8.15849H10.4887C10.5261 8.15849 10.5583 8.15743 10.5871 8.15648C10.6756 8.15357 10.7316 8.15172 10.8023 8.18498C10.8846 8.22368 11.0123 8.33163 11.1532 8.67539L11.1532 8.67539L11.1542 8.67778C11.2894 8.99539 11.5068 9.52208 11.7175 10.0325C11.7492 10.1092 11.7807 10.1855 11.8117 10.2607C12.0466 10.8294 12.2608 11.3465 12.3112 11.4474C12.3908 11.6066 12.4292 11.7457 12.3448 11.9321C12.3115 11.9937 12.2835 12.0478 12.2579 12.0971C12.178 12.2516 12.1215 12.3607 11.997 12.5159C11.9463 12.5759 11.8956 12.6368 11.8457 12.6969C11.702 12.8697 11.5638 13.036 11.443 13.1568C11.354 13.2458 11.2275 13.3724 11.1664 13.5398C11.0991 13.7243 11.1194 13.9286 11.2522 14.1537C11.4751 14.534 12.2285 15.7754 13.3649 16.7866C14.5786 17.875 15.6431 18.3377 16.1668 18.5653C16.269 18.6097 16.3506 18.6452 16.4087 18.6746L16.4086 18.6748L16.4168 18.6785C16.6122 18.766 16.7966 18.8194 16.9751 18.7991C17.163 18.7777 17.3113 18.6791 17.441 18.5345C17.6594 18.2908 18.3865 17.4422 18.6389 17.0626L18.6391 17.0624C18.7435 16.905 18.8241 16.8716 18.888 16.8641C18.9731 16.8542 19.0792 16.8825 19.2559 16.9454C19.4181 17.0062 19.9499 17.2556 20.5006 17.5203C21.0478 17.7832 21.5981 18.0535 21.7843 18.1477ZM7.87212 27.7511L0.270128 29.7335L2.3017 22.3497L2.32278 22.2731L2.28295 22.2043C0.991015 19.973 0.316306 17.4521 0.316306 14.8678C0.320991 6.77578 6.93474 0.189744 15.0581 0.189744C18.9544 0.189744 22.6202 1.69409 25.426 4.36064L25.4082 4.40604L25.4965 4.49388C28.2825 7.26599 29.8102 10.9535 29.8103 14.8724C29.8056 22.9701 23.1918 29.5562 15.0638 29.5562H15.0595C12.5982 29.5501 10.1766 28.9357 8.01005 27.7677L7.94435 27.7323L7.87212 27.7511Z" fill="url(#paint0_radial)"/>
<path d="M27.6941 14.8346C27.6985 13.184 27.3741 11.549 26.7399 10.0252C26.1057 8.50141 25.1745 7.1192 24.0006 5.95913C21.6214 3.58014 18.458 2.26651 15.0872 2.26651C8.12827 2.26651 2.47088 7.90246 2.47088 14.8144C2.47078 17.1755 3.13766 19.4886 4.39468 21.4873L4.39593 21.4892L4.65258 21.8865L3.41523 26.3654L3.32765 26.6824L3.64594 26.5996L8.25656 25.399L8.63741 25.6264L8.63867 25.6271C10.5819 26.7671 12.8069 27.3772 15.0581 27.3772H15.0778H15.0825C22.0321 27.3772 27.6845 21.7413 27.6941 14.8346ZM27.6941 14.8346L27.5044 14.8341M27.6941 14.8346C27.6941 14.8345 27.6941 14.8344 27.6941 14.8343L27.5044 14.8341M27.5044 14.8341C27.495 21.6356 21.9281 27.1875 15.0825 27.1875H15.0778H15.0581C12.8409 27.1875 10.6491 26.5866 8.73469 25.4634L4.55531 21.3862C3.31731 19.4178 2.66053 17.1397 2.66062 14.8144C2.66062 8.00813 8.23219 2.45625 15.0872 2.45625C18.4078 2.45625 21.5231 3.75 23.8669 6.09375C25.0231 7.23618 25.9402 8.59742 26.5647 10.0981C27.1892 11.5987 27.5087 13.2087 27.5044 14.8341ZM21.7843 18.1477L22.0135 18.2638L22.0319 18.157C22.1202 18.1962 22.1942 18.2306 22.2574 18.2651C22.3674 18.3251 22.4119 18.3692 22.4317 18.4057L22.4327 18.4074C22.4326 18.4072 22.4326 18.4073 22.4328 18.4077C22.4337 18.4099 22.438 18.4205 22.4431 18.4436C22.449 18.4705 22.4544 18.507 22.4579 18.5536C22.4651 18.6467 22.4643 18.7707 22.4509 18.9199C22.4243 19.2179 22.3483 19.6061 22.1949 20.033L22.1947 20.0335C22.0602 20.411 21.6541 20.7983 21.1609 21.1139C20.6736 21.4258 20.1473 21.6383 19.8245 21.6918C19.1963 21.7822 18.4139 21.8184 17.5597 21.5482C17.4905 21.5245 17.4191 21.5003 17.3452 21.4752C16.8384 21.303 16.2176 21.0921 15.4455 20.7672C12.0447 19.3036 9.73252 16.0468 9.23185 15.3416C9.19198 15.2854 9.1636 15.2455 9.14707 15.2239C9.13764 15.2105 9.12572 15.1939 9.11157 15.1743C8.97806 14.9885 8.64623 14.5269 8.33208 13.9109C7.98049 13.2216 7.66068 12.3568 7.66068 11.4891C7.66068 9.87377 8.4532 9.02593 8.83995 8.61219C8.86839 8.58176 8.89464 8.55368 8.91822 8.52781C9.21803 8.21676 9.57011 8.13881 9.77625 8.13881C10.0271 8.13881 10.2671 8.13896 10.4714 8.1577L10.4801 8.15849H10.4887C10.5261 8.15849 10.5583 8.15743 10.5871 8.15648C10.6756 8.15357 10.7316 8.15172 10.8023 8.18498C10.8846 8.22368 11.0123 8.33163 11.1532 8.67539L11.1532 8.67539L11.1542 8.67778C11.2894 8.99539 11.5068 9.52208 11.7175 10.0325C11.7492 10.1092 11.7807 10.1855 11.8117 10.2607C12.0466 10.8294 12.2608 11.3465 12.3112 11.4474C12.3908 11.6066 12.4292 11.7457 12.3448 11.9321C12.3115 11.9937 12.2835 12.0478 12.2579 12.0971C12.178 12.2516 12.1215 12.3607 11.997 12.5159C11.9463 12.5759 11.8956 12.6368 11.8457 12.6969C11.702 12.8697 11.5638 13.036 11.443 13.1568C11.354 13.2458 11.2275 13.3724 11.1664 13.5398C11.0991 13.7243 11.1194 13.9286 11.2522 14.1537C11.4751 14.534 12.2285 15.7754 13.3649 16.7866C14.5786 17.875 15.6431 18.3377 16.1668 18.5653C16.269 18.6097 16.3506 18.6452 16.4087 18.6746L16.4086 18.6748L16.4168 18.6785C16.6122 18.766 16.7966 18.8194 16.9751 18.7991C17.163 18.7777 17.3113 18.6791 17.441 18.5345C17.6594 18.2908 18.3865 17.4422 18.6389 17.0626L18.6391 17.0624C18.7435 16.905 18.8241 16.8716 18.888 16.8641C18.9731 16.8542 19.0792 16.8825 19.2559 16.9454C19.4181 17.0062 19.9499 17.2556 20.5006 17.5203C21.0478 17.7832 21.5981 18.0535 21.7843 18.1477ZM7.87212 27.7511L0.270128 29.7335L2.3017 22.3497L2.32278 22.2731L2.28295 22.2043C0.991015 19.973 0.316306 17.4521 0.316306 14.8678C0.320991 6.77578 6.93474 0.189744 15.0581 0.189744C18.9544 0.189744 22.6202 1.69409 25.426 4.36064L25.4082 4.40604L25.4965 4.49388C28.2825 7.26599 29.8102 10.9535 29.8103 14.8724C29.8056 22.9701 23.1918 29.5562 15.0638 29.5562H15.0595C12.5982 29.5501 10.1766 28.9357 8.01005 27.7677L7.94435 27.7323L7.87212 27.7511Z" stroke="#02861F" stroke-opacity="0.8" stroke-width="0.379487"/>
<path d="M27.6941 14.8346C27.6985 13.184 27.3741 11.549 26.7399 10.0252C26.1057 8.50141 25.1745 7.1192 24.0006 5.95913C21.6214 3.58014 18.458 2.26651 15.0872 2.26651C8.12827 2.26651 2.47088 7.90246 2.47088 14.8144C2.47078 17.1755 3.13766 19.4886 4.39468 21.4873L4.39593 21.4892L4.65258 21.8865L3.41523 26.3654L3.32765 26.6824L3.64594 26.5996L8.25656 25.399L8.63741 25.6264L8.63867 25.6271C10.5819 26.7671 12.8069 27.3772 15.0581 27.3772H15.0778H15.0825C22.0321 27.3772 27.6845 21.7413 27.6941 14.8346ZM27.6941 14.8346L27.5044 14.8341M27.6941 14.8346C27.6941 14.8345 27.6941 14.8344 27.6941 14.8343L27.5044 14.8341M27.5044 14.8341C27.495 21.6356 21.9281 27.1875 15.0825 27.1875H15.0778H15.0581C12.8409 27.1875 10.6491 26.5866 8.73469 25.4634L4.55531 21.3862C3.31731 19.4178 2.66053 17.1397 2.66062 14.8144C2.66062 8.00813 8.23219 2.45625 15.0872 2.45625C18.4078 2.45625 21.5231 3.75 23.8669 6.09375C25.0231 7.23618 25.9402 8.59742 26.5647 10.0981C27.1892 11.5987 27.5087 13.2087 27.5044 14.8341ZM21.7843 18.1477L22.0135 18.2638L22.0319 18.157C22.1202 18.1962 22.1942 18.2306 22.2574 18.2651C22.3674 18.3251 22.4119 18.3692 22.4317 18.4057L22.4327 18.4074C22.4326 18.4072 22.4326 18.4073 22.4328 18.4077C22.4337 18.4099 22.438 18.4205 22.4431 18.4436C22.449 18.4705 22.4544 18.507 22.4579 18.5536C22.4651 18.6467 22.4643 18.7707 22.4509 18.9199C22.4243 19.2179 22.3483 19.6061 22.1949 20.033L22.1947 20.0335C22.0602 20.411 21.6541 20.7983 21.1609 21.1139C20.6736 21.4258 20.1473 21.6383 19.8245 21.6918C19.1963 21.7822 18.4139 21.8184 17.5597 21.5482C17.4905 21.5245 17.4191 21.5003 17.3452 21.4752C16.8384 21.303 16.2176 21.0921 15.4455 20.7672C12.0447 19.3036 9.73252 16.0468 9.23185 15.3416C9.19198 15.2854 9.1636 15.2455 9.14707 15.2239C9.13764 15.2105 9.12572 15.1939 9.11157 15.1743C8.97806 14.9885 8.64623 14.5269 8.33208 13.9109C7.98049 13.2216 7.66068 12.3568 7.66068 11.4891C7.66068 9.87377 8.4532 9.02593 8.83995 8.61219C8.86839 8.58176 8.89464 8.55368 8.91822 8.52781C9.21803 8.21676 9.57011 8.13881 9.77625 8.13881C10.0271 8.13881 10.2671 8.13896 10.4714 8.1577L10.4801 8.15849H10.4887C10.5261 8.15849 10.5583 8.15743 10.5871 8.15648C10.6756 8.15357 10.7316 8.15172 10.8023 8.18498C10.8846 8.22368 11.0123 8.33163 11.1532 8.67539L11.1532 8.67539L11.1542 8.67778C11.2894 8.99539 11.5068 9.52208 11.7175 10.0325C11.7492 10.1092 11.7807 10.1855 11.8117 10.2607C12.0466 10.8294 12.2608 11.3465 12.3112 11.4474C12.3908 11.6066 12.4292 11.7457 12.3448 11.9321C12.3115 11.9937 12.2835 12.0478 12.2579 12.0971C12.178 12.2516 12.1215 12.3607 11.997 12.5159C11.9463 12.5759 11.8956 12.6368 11.8457 12.6969C11.702 12.8697 11.5638 13.036 11.443 13.1568C11.354 13.2458 11.2275 13.3724 11.1664 13.5398C11.0991 13.7243 11.1194 13.9286 11.2522 14.1537C11.4751 14.534 12.2285 15.7754 13.3649 16.7866C14.5786 17.875 15.6431 18.3377 16.1668 18.5653C16.269 18.6097 16.3506 18.6452 16.4087 18.6746L16.4086 18.6748L16.4168 18.6785C16.6122 18.766 16.7966 18.8194 16.9751 18.7991C17.163 18.7777 17.3113 18.6791 17.441 18.5345C17.6594 18.2908 18.3865 17.4422 18.6389 17.0626L18.6391 17.0624C18.7435 16.905 18.8241 16.8716 18.888 16.8641C18.9731 16.8542 19.0792 16.8825 19.2559 16.9454C19.4181 17.0062 19.9499 17.2556 20.5006 17.5203C21.0478 17.7832 21.5981 18.0535 21.7843 18.1477ZM7.87212 27.7511L0.270128 29.7335L2.3017 22.3497L2.32278 22.2731L2.28295 22.2043C0.991015 19.973 0.316306 17.4521 0.316306 14.8678C0.320991 6.77578 6.93474 0.189744 15.0581 0.189744C18.9544 0.189744 22.6202 1.69409 25.426 4.36064L25.4082 4.40604L25.4965 4.49388C28.2825 7.26599 29.8102 10.9535 29.8103 14.8724C29.8056 22.9701 23.1918 29.5562 15.0638 29.5562H15.0595C12.5982 29.5501 10.1766 28.9357 8.01005 27.7677L7.94435 27.7323L7.87212 27.7511Z" stroke="url(#paint1_radial)" stroke-width="0.379487"/>
<defs>
<radialGradient id="paint0_radial" cx="0" cy="0" r="1" gradientUnits="userSpaceOnUse" gradientTransform="translate(15 15) rotate(90) scale(15)">
<stop offset="0.286458" stop-color="#02861F"/>
<stop offset="1" stop-color="#016F19"/>
</radialGradient>
<radialGradient id="paint1_radial" cx="0" cy="0" r="1" gradientUnits="userSpaceOnUse" gradientTransform="translate(15 15) rotate(90) scale(15)">
<stop offset="0.286458" stop-color="#02861F"/>
<stop offset="1" stop-color="#016F19"/>
</radialGradient>
</defs>
</svg>
