<svg width="30" height="30" viewBox="0 0 30 30" fill="none" xmlns="http://www.w3.org/2000/svg">
<circle cx="15" cy="15" r="15" fill="#9B51E0"/>
<path d="M14.8088 7.34999C13.5975 7.34999 10.6013 7.47749 9.00753 9.00749C7.86003 10.0912 7.41378 11.7487 7.35003 13.725C7.22253 16.8487 7.92378 18.825 9.07128 19.845C9.32628 20.0362 9.96379 20.5462 11.175 20.9287V22.5225C11.175 22.5225 11.175 23.16 11.5575 23.2875C11.6213 23.2875 11.685 23.3512 11.7488 23.3512C12.1313 23.3512 12.45 22.905 12.8963 22.4587C13.2788 22.0125 13.5975 21.6937 13.7888 21.375H15.1913C16.4025 21.375 19.3988 21.2475 20.9925 19.7175C22.14 18.57 22.5863 16.9125 22.5863 14.8087C22.65 14.49 22.65 14.1075 22.65 13.725C22.5863 11.3662 21.885 9.77249 20.9288 8.87999C20.5463 8.56124 18.8888 7.34999 15.3188 7.34999H14.8088ZM14.6813 8.56124H15.255C18.6338 8.56124 19.9088 9.64499 20.0363 9.77249C20.8013 10.41 21.2475 11.8125 21.3113 13.6612V13.9162C21.375 14.2987 21.375 14.6175 21.375 14.8087C21.3113 16.7212 20.9288 17.9962 20.1638 18.825C18.825 20.0362 16.02 20.1 15.255 20.1H14.0438L13.0238 21.2475L12.3863 21.9487L12.2588 22.14C12.1313 22.2675 11.94 22.5225 11.8125 22.5862V19.7175C10.5375 19.3987 10.0275 18.9525 9.90004 18.825C9.00753 18.06 8.49753 16.2112 8.62503 13.725V13.0875C8.75253 11.5575 9.13504 10.5375 9.77254 9.83624C11.1113 8.62499 13.9163 8.56124 14.6813 8.56124ZM14.6175 9.96374C14.2988 9.96374 14.2988 10.41 14.6175 10.41C16.9763 10.41 19.0163 12.0037 19.0163 15C19.0163 15.3187 19.4625 15.3187 19.4625 15C19.4625 11.7487 17.295 9.89999 14.6175 9.96374ZM12.0911 10.5534C11.9467 10.5361 11.8012 10.5759 11.6857 10.6644C11.0482 10.9831 10.41 11.6219 10.6013 12.3231C10.6013 12.3231 10.7288 12.8962 11.43 14.1075C11.8125 14.6812 12.1313 15.1912 12.45 15.5737C12.7688 16.02 13.2788 16.53 13.7888 16.9125C14.8088 17.7412 16.4025 18.57 17.1038 18.7612C17.7413 18.9525 18.4425 18.315 18.7613 17.6775C18.8888 17.4225 18.825 17.1037 18.57 16.9125C18.1875 16.53 17.55 16.0837 17.1038 15.8287C16.785 15.6375 16.4025 15.765 16.275 15.9562L15.9563 16.3387C15.8288 16.53 15.51 16.53 15.51 16.53C13.4063 15.9562 12.8325 13.7887 12.8325 13.7887C12.8325 13.7887 12.8325 13.5337 13.0238 13.3425L13.4063 13.0237C13.5975 12.8962 13.725 12.5137 13.5338 12.195C13.4063 12.0037 13.215 11.6212 13.0238 11.43C12.8325 11.175 12.45 10.7287 12.45 10.7287C12.3533 10.6319 12.227 10.5702 12.0911 10.5534ZM15.0638 11.2387C14.745 11.175 14.6813 11.685 15 11.685C16.785 11.8125 17.805 13.0237 17.7413 14.5537C17.6775 14.8725 18.1875 14.8725 18.1875 14.5537C18.2513 12.7687 17.1038 11.3025 15.0638 11.2387ZM15.255 12.45C14.9363 12.3862 14.9363 12.8962 15.255 12.8962C16.02 12.8962 16.4025 13.3425 16.4025 14.1075C16.4663 14.4262 16.9125 14.4262 16.9125 14.1075C16.8488 13.0875 16.275 12.45 15.255 12.45Z" fill="#F2F2F2"/>
</svg>
