<svg width="72" height="72" viewBox="0 0 72 72" fill="none" xmlns="http://www.w3.org/2000/svg">
<circle cx="36" cy="36" r="25" fill="#02861F" fill-opacity="0.8"/>
<circle cx="36" cy="36" r="25" fill="url(#paint0_radial)"/>
<path fill-rule="evenodd" clip-rule="evenodd" d="M27.6295 23.4915C27.5223 23.3495 27.3871 23.2325 27.2329 23.1485C27.0787 23.0645 26.909 23.0153 26.7349 23.0041C26.5609 22.9929 26.3866 23.0201 26.2236 23.0838C26.0605 23.1475 25.9123 23.2463 25.789 23.3736L23.9117 25.3134C23.035 26.2193 22.7119 27.5032 23.097 28.6291C24.6853 33.2935 27.2697 37.5285 30.6582 41.0199C34.037 44.5214 38.1354 47.1918 42.6494 48.8331C43.7389 49.2291 44.9814 48.8971 45.8581 47.9912L47.7353 46.0514C47.8584 45.9238 47.9539 45.7706 48.0153 45.602C48.0768 45.4334 48.1029 45.2533 48.092 45.0735C48.081 44.8936 48.0332 44.7183 47.9517 44.559C47.8702 44.3997 47.7569 44.2602 47.6192 44.1496L43.4351 40.7859C43.2879 40.6677 43.1167 40.5856 42.9343 40.5457C42.7519 40.5059 42.5632 40.5094 42.3823 40.5559L38.411 41.5818C37.8806 41.7191 37.3247 41.712 36.7977 41.5613C36.2706 41.4106 35.7903 41.1214 35.4036 40.7219L30.9485 36.1163C30.5619 35.7167 30.282 35.2204 30.1362 34.6758C29.9903 34.1312 29.9835 33.5568 30.1163 33.0086L31.1091 28.905C31.1542 28.7181 31.1576 28.5231 31.119 28.3346C31.0805 28.1462 31.001 27.9692 30.8866 27.8171L27.6295 23.4915ZM24.4207 21.9617C24.7382 21.6338 25.1196 21.3794 25.5395 21.2154C25.9594 21.0515 26.4083 20.9816 26.8563 21.0106C27.3043 21.0395 27.7413 21.1665 28.1382 21.3833C28.5351 21.6 28.8828 21.9015 29.1584 22.2677L32.4116 26.5913C33.0096 27.3832 33.2206 28.4171 32.9845 29.391L31.9916 33.4966C31.94 33.7096 31.9426 33.9328 31.9993 34.1445C32.0559 34.3562 32.1646 34.5491 32.3148 34.7045L36.7738 39.308C36.9241 39.4633 37.1108 39.5756 37.3157 39.6341C37.5205 39.6926 37.7365 39.6954 37.9427 39.642L41.9139 38.6161C42.3797 38.4959 42.8659 38.4867 43.3356 38.5893C43.8054 38.6918 44.2464 38.9034 44.6253 39.208L48.8094 42.5697C50.3132 43.7776 50.4525 46.0754 49.1055 47.4653L47.2283 49.4051C45.8871 50.7909 43.8802 51.4009 42.0088 50.7209C37.2217 48.9797 32.8753 46.1473 29.2919 42.4337C25.6973 38.7312 22.9556 34.2399 21.2701 29.293C20.612 27.3592 21.2023 25.2854 22.5435 23.8975L24.4207 21.9597V21.9617ZM44.5073 21.2938C44.5971 21.2006 44.7039 21.1268 44.8215 21.0764C44.939 21.0259 45.0651 21 45.1924 21C45.3196 21 45.4457 21.0259 45.5632 21.0764C45.6808 21.1268 45.7876 21.2006 45.8775 21.2938L50.7157 26.2933C50.8058 26.3862 50.8773 26.4965 50.9261 26.618C50.9749 26.7395 51 26.8697 51 27.0012C51 27.1327 50.9749 27.263 50.9261 27.3844C50.8773 27.5059 50.8058 27.6163 50.7157 27.7091L45.8775 32.7087C45.6958 32.8964 45.4493 33.0019 45.1924 33.0019C44.9354 33.0019 44.689 32.8964 44.5073 32.7087C44.3256 32.5209 44.2235 32.2663 44.2235 32.0007C44.2235 31.7352 44.3256 31.4806 44.5073 31.2928L47.6947 28.0011H38.4188C38.1621 28.0011 37.916 27.8958 37.7346 27.7083C37.5531 27.5207 37.4511 27.2664 37.4511 27.0012C37.4511 26.736 37.5531 26.4817 37.7346 26.2942C37.916 26.1067 38.1621 26.0013 38.4188 26.0013H47.6947L44.5073 22.7096C44.4171 22.6167 44.3456 22.5064 44.2969 22.3849C44.2481 22.2634 44.223 22.1332 44.223 22.0017C44.223 21.8702 44.2481 21.7399 44.2969 21.6185C44.3456 21.497 44.4171 21.3866 44.5073 21.2938Z" fill="white"/>
<rect x="5.5" y="5.5" width="61" height="61" rx="30.5" stroke="#CFEEFC" stroke-width="11"/>
<defs>
<radialGradient id="paint0_radial" cx="0" cy="0" r="1" gradientUnits="userSpaceOnUse" gradientTransform="translate(36 36) rotate(90) scale(25)">
<stop offset="0.286458" stop-color="#02861F"/>
<stop offset="1" stop-color="#016F19"/>
</radialGradient>
</defs>
</svg>
