<svg width="443" height="48" viewBox="0 0 443 48" fill="none" xmlns="http://www.w3.org/2000/svg">
<circle cx="194" cy="25" r="10" fill="#02861F" fill-opacity="0.8"/>
<circle cx="194" cy="25" r="10" fill="url(#paint0_radial)"/>
<path d="M194 24C194.552 24 195 24.4477 195 25H173C173 36.598 182.402 46 194 46V24ZM193 25C193 24.4477 193.448 24 194 24V46C205.598 46 215 36.598 215 25H193ZM194 26C193.448 26 193 25.5523 193 25H215C215 13.402 205.598 4 194 4V26ZM194 4C182.402 4 173 13.402 173 25H195C195 25.5523 194.552 26 194 26V4Z" fill="url(#paint1_linear)" fill-opacity="0.2"/>
<g filter="url(#filter0_d)">
<path d="M14.364 11.134C18.088 11.134 20.9887 12.046 23.066 13.87C25.1687 15.694 26.22 18.2527 26.22 21.546C26.22 24.662 25.27 27.1067 23.37 28.88C21.4953 30.6533 18.8607 31.54 15.466 31.54C14.3513 31.54 13.262 31.426 12.198 31.198C11.1593 30.97 10.032 30.59 8.816 30.058V38H2.736V22.268C2.736 18.696 3.724 15.9473 5.7 14.022C7.70133 12.0967 10.5893 11.134 14.364 11.134ZM14.402 26.904C16.2007 26.904 17.5813 26.448 18.544 25.536C19.532 24.624 20.026 23.332 20.026 21.66C20.026 19.9627 19.532 18.6453 18.544 17.708C17.5813 16.7707 16.2387 16.302 14.516 16.302C12.7173 16.302 11.3113 16.8213 10.298 17.86C9.31 18.8987 8.816 20.3553 8.816 22.23V25.194C9.576 25.726 10.4373 26.144 11.4 26.448C12.388 26.752 13.3887 26.904 14.402 26.904ZM40.2758 38.304C38.1225 38.304 36.1845 37.8607 34.4618 36.974C32.7645 36.062 31.4345 34.808 30.4718 33.212C29.5092 31.616 29.0278 29.8047 29.0278 27.778C29.0278 25.7513 29.5092 23.94 30.4718 22.344C31.4345 20.748 32.7645 19.5067 34.4618 18.62C36.1845 17.708 38.1225 17.252 40.2758 17.252C42.4292 17.252 44.3545 17.708 46.0518 18.62C47.7492 19.5067 49.0792 20.748 50.0418 22.344C51.0045 23.94 51.4858 25.7513 51.4858 27.778C51.4858 29.8047 51.0045 31.616 50.0418 33.212C49.0792 34.808 47.7492 36.062 46.0518 36.974C44.3545 37.8607 42.4292 38.304 40.2758 38.304ZM40.2758 33.44C41.7958 33.44 43.0372 32.9333 43.9998 31.92C44.9878 30.8813 45.4818 29.5007 45.4818 27.778C45.4818 26.0553 44.9878 24.6873 43.9998 23.674C43.0372 22.6353 41.7958 22.116 40.2758 22.116C38.7558 22.116 37.5018 22.6353 36.5138 23.674C35.5258 24.6873 35.0318 26.0553 35.0318 27.778C35.0318 29.5007 35.5258 30.8813 36.5138 31.92C37.5018 32.9333 38.7558 33.44 40.2758 33.44ZM66.0511 38.304C63.8725 38.304 61.9091 37.8607 60.1611 36.974C58.4385 36.062 57.0831 34.808 56.0951 33.212C55.1325 31.616 54.6511 29.8047 54.6511 27.778C54.6511 25.7513 55.1325 23.94 56.0951 22.344C57.0831 20.748 58.4385 19.5067 60.1611 18.62C61.9091 17.708 63.8725 17.252 66.0511 17.252C68.2045 17.252 70.0791 17.708 71.6751 18.62C73.2965 19.5067 74.4745 20.786 75.2091 22.458L70.6111 24.928C69.5471 23.0533 68.0145 22.116 66.0131 22.116C64.4678 22.116 63.1885 22.6227 62.1751 23.636C61.1618 24.6493 60.6551 26.03 60.6551 27.778C60.6551 29.526 61.1618 30.9067 62.1751 31.92C63.1885 32.9333 64.4678 33.44 66.0131 33.44C68.0398 33.44 69.5725 32.5027 70.6111 30.628L75.2091 33.136C74.4745 34.7573 73.2965 36.024 71.6751 36.936C70.0791 37.848 68.2045 38.304 66.0511 38.304ZM105.715 17.252C108.274 17.252 110.301 18.012 111.795 19.532C113.315 21.0267 114.075 23.2813 114.075 26.296V38H108.147V27.208C108.147 25.5867 107.805 24.3833 107.121 23.598C106.463 22.7873 105.513 22.382 104.271 22.382C102.878 22.382 101.776 22.838 100.965 23.75C100.155 24.6367 99.7494 25.9667 99.7494 27.74V38H93.8214V27.208C93.8214 23.9907 92.5294 22.382 89.9454 22.382C88.5774 22.382 87.4881 22.838 86.6774 23.75C85.8667 24.6367 85.4614 25.9667 85.4614 27.74V38H79.5334V17.556H85.1954V19.912C85.9554 19.0507 86.8801 18.392 87.9694 17.936C89.0841 17.48 90.3001 17.252 91.6174 17.252C93.0614 17.252 94.3661 17.5433 95.5314 18.126C96.6967 18.6833 97.6341 19.5067 98.3434 20.596C99.1794 19.532 100.231 18.7087 101.497 18.126C102.789 17.5433 104.195 17.252 105.715 17.252ZM129.577 38.304C127.424 38.304 125.486 37.8607 123.763 36.974C122.066 36.062 120.736 34.808 119.773 33.212C118.811 31.616 118.329 29.8047 118.329 27.778C118.329 25.7513 118.811 23.94 119.773 22.344C120.736 20.748 122.066 19.5067 123.763 18.62C125.486 17.708 127.424 17.252 129.577 17.252C131.731 17.252 133.656 17.708 135.353 18.62C137.051 19.5067 138.381 20.748 139.343 22.344C140.306 23.94 140.787 25.7513 140.787 27.778C140.787 29.8047 140.306 31.616 139.343 33.212C138.381 34.808 137.051 36.062 135.353 36.974C133.656 37.8607 131.731 38.304 129.577 38.304ZM129.577 33.44C131.097 33.44 132.339 32.9333 133.301 31.92C134.289 30.8813 134.783 29.5007 134.783 27.778C134.783 26.0553 134.289 24.6873 133.301 23.674C132.339 22.6353 131.097 22.116 129.577 22.116C128.057 22.116 126.803 22.6353 125.815 23.674C124.827 24.6873 124.333 26.0553 124.333 27.778C124.333 29.5007 124.827 30.8813 125.815 31.92C126.803 32.9333 128.057 33.44 129.577 33.44ZM161.243 27.322C163.649 28.1327 164.853 29.754 164.853 32.186C164.853 34.0353 164.156 35.4667 162.763 36.48C161.369 37.4933 159.292 38 156.531 38H145.625V17.556H156.075C158.633 17.556 160.635 18.0247 162.079 18.962C163.523 19.874 164.245 21.166 164.245 22.838C164.245 23.8513 163.979 24.7507 163.447 25.536C162.94 26.296 162.205 26.8913 161.243 27.322ZM151.059 25.954H155.543C157.62 25.954 158.659 25.2193 158.659 23.75C158.659 22.306 157.62 21.584 155.543 21.584H151.059V25.954ZM156.037 33.972C158.215 33.972 159.305 33.2247 159.305 31.73C159.305 30.9447 159.051 30.3747 158.545 30.02C158.038 29.64 157.24 29.45 156.151 29.45H151.059V33.972H156.037ZM193.963 10.944C196.623 10.944 199.017 11.5393 201.145 12.73C203.299 13.9207 204.983 15.5673 206.199 17.67C207.415 19.7473 208.023 22.0907 208.023 24.7C208.023 27.3093 207.415 29.6653 206.199 31.768C204.983 33.8453 203.299 35.4793 201.145 36.67C199.017 37.8607 196.623 38.456 193.963 38.456C191.582 38.456 189.403 37.9873 187.427 37.05C185.451 36.0873 183.817 34.7573 182.525 33.06C181.259 31.3373 180.448 29.374 180.093 27.17H176.597V38H170.479V11.4H176.597V21.85H180.169C180.575 19.722 181.411 17.8347 182.677 16.188C183.969 14.516 185.591 13.224 187.541 12.312C189.492 11.4 191.633 10.944 193.963 10.944ZM193.963 33.212C195.433 33.212 196.763 32.8573 197.953 32.148C199.144 31.4387 200.081 30.438 200.765 29.146C201.449 27.854 201.791 26.372 201.791 24.7C201.791 23.028 201.449 21.546 200.765 20.254C200.081 18.962 199.144 17.9613 197.953 17.252C196.763 16.5427 195.433 16.188 193.963 16.188C192.494 16.188 191.164 16.5427 189.973 17.252C188.783 17.9613 187.845 18.962 187.161 20.254C186.477 21.546 186.135 23.028 186.135 24.7C186.135 26.372 186.477 27.854 187.161 29.146C187.845 30.438 188.783 31.4387 189.973 32.148C191.164 32.8573 192.494 33.212 193.963 33.212ZM229.503 22.42H219.015V38H213.125V17.556H229.503V22.42Z" fill="url(#paint2_linear)"/>
<path d="M253.849 18.848C251.569 17.5307 249.124 16.682 246.515 16.302V38H240.359V16.302C237.749 16.682 235.292 17.5307 232.987 18.848L230.897 14.25C232.721 13.1607 234.697 12.3373 236.825 11.78C238.953 11.2227 241.144 10.944 243.399 10.944C245.679 10.944 247.883 11.2227 250.011 11.78C252.164 12.3373 254.14 13.1607 255.939 14.25L253.849 18.848ZM268.662 17.252C270.841 17.252 272.741 17.6827 274.362 18.544C275.984 19.4053 277.238 20.634 278.124 22.23C279.011 23.826 279.454 25.688 279.454 27.816C279.454 29.8933 279.036 31.73 278.2 33.326C277.364 34.8967 276.186 36.1253 274.666 37.012C273.146 37.8733 271.398 38.304 269.422 38.304C266.813 38.304 264.774 37.4807 263.304 35.834V45.372H257.376V27.854C257.376 25.7513 257.845 23.902 258.782 22.306C259.72 20.71 261.037 19.4687 262.734 18.582C264.432 17.6953 266.408 17.252 268.662 17.252ZM268.396 33.44C269.942 33.44 271.196 32.9207 272.158 31.882C273.121 30.8433 273.602 29.488 273.602 27.816C273.602 26.1187 273.121 24.7507 272.158 23.712C271.196 22.648 269.942 22.116 268.396 22.116C266.851 22.116 265.597 22.6353 264.634 23.674C263.697 24.7127 263.228 26.0807 263.228 27.778C263.228 29.4753 263.697 30.8433 264.634 31.882C265.572 32.9207 266.826 33.44 268.396 33.44ZM305.025 17.556V38H299.363V35.644C297.894 37.4173 295.766 38.304 292.979 38.304C291.054 38.304 289.306 37.8733 287.735 37.012C286.19 36.1507 284.974 34.922 284.087 33.326C283.201 31.73 282.757 29.8807 282.757 27.778C282.757 25.6753 283.201 23.826 284.087 22.23C284.974 20.634 286.19 19.4053 287.735 18.544C289.306 17.6827 291.054 17.252 292.979 17.252C295.589 17.252 297.628 18.0753 299.097 19.722V17.556H305.025ZM294.005 33.44C295.5 33.44 296.741 32.9333 297.729 31.92C298.717 30.8813 299.211 29.5007 299.211 27.778C299.211 26.0553 298.717 24.6873 297.729 23.674C296.741 22.6353 295.5 22.116 294.005 22.116C292.485 22.116 291.231 22.6353 290.243 23.674C289.255 24.6873 288.761 26.0553 288.761 27.778C288.761 29.5007 289.255 30.8813 290.243 31.92C291.231 32.9333 292.485 33.44 294.005 33.44ZM311.388 17.556H317.278V25.536H326.17V17.556H332.098V38H326.17V30.362H317.278V38H311.388V17.556ZM348.26 38.304C346.082 38.304 344.118 37.8607 342.37 36.974C340.648 36.062 339.292 34.808 338.304 33.212C337.342 31.616 336.86 29.8047 336.86 27.778C336.86 25.7513 337.342 23.94 338.304 22.344C339.292 20.748 340.648 19.5067 342.37 18.62C344.118 17.708 346.082 17.252 348.26 17.252C350.414 17.252 352.288 17.708 353.884 18.62C355.506 19.5067 356.684 20.786 357.418 22.458L352.82 24.928C351.756 23.0533 350.224 22.116 348.222 22.116C346.677 22.116 345.398 22.6227 344.384 23.636C343.371 24.6493 342.864 26.03 342.864 27.778C342.864 29.526 343.371 30.9067 344.384 31.92C345.398 32.9333 346.677 33.44 348.222 33.44C350.249 33.44 351.782 32.5027 352.82 30.628L357.418 33.136C356.684 34.7573 355.506 36.024 353.884 36.936C352.288 37.848 350.414 38.304 348.26 38.304ZM389.755 27.702C389.755 30.8687 388.691 33.3767 386.563 35.226C384.46 37.05 381.446 38.1013 377.519 38.38V45.372H372.085V38.38C368.158 38.1013 365.131 37.0627 363.003 35.264C360.9 33.44 359.849 30.9193 359.849 27.702C359.849 24.5353 360.888 22.078 362.965 20.33C365.068 18.582 368.108 17.5687 372.085 17.29V9.804H377.519V17.29C381.446 17.5687 384.46 18.5947 386.563 20.368C388.691 22.1413 389.755 24.586 389.755 27.702ZM365.587 27.702C365.587 29.526 366.106 30.932 367.145 31.92C368.184 32.908 369.83 33.5287 372.085 33.782V21.888C369.83 22.116 368.184 22.7113 367.145 23.674C366.106 24.6113 365.587 25.954 365.587 27.702ZM377.519 33.782C379.774 33.5287 381.42 32.908 382.459 31.92C383.523 30.932 384.055 29.526 384.055 27.702C384.055 25.954 383.523 24.6113 382.459 23.674C381.42 22.7113 379.774 22.116 377.519 21.888V33.782ZM404.713 33.554C405.777 33.554 406.714 33.402 407.525 33.098C408.361 32.7687 409.134 32.262 409.843 31.578L412.997 34.998C411.072 37.202 408.26 38.304 404.561 38.304C402.256 38.304 400.216 37.8607 398.443 36.974C396.67 36.062 395.302 34.808 394.339 33.212C393.376 31.616 392.895 29.8047 392.895 27.778C392.895 25.7767 393.364 23.978 394.301 22.382C395.264 20.7607 396.568 19.5067 398.215 18.62C399.887 17.708 401.762 17.252 403.839 17.252C405.79 17.252 407.563 17.67 409.159 18.506C410.755 19.3167 412.022 20.5073 412.959 22.078C413.922 23.6233 414.403 25.46 414.403 27.588L399.279 30.514C399.71 31.5273 400.381 32.2873 401.293 32.794C402.23 33.3007 403.37 33.554 404.713 33.554ZM403.839 21.736C402.344 21.736 401.128 22.2173 400.191 23.18C399.254 24.1427 398.76 25.4727 398.709 27.17L408.665 25.232C408.386 24.168 407.816 23.3193 406.955 22.686C406.094 22.0527 405.055 21.736 403.839 21.736ZM429.75 17.252C431.928 17.252 433.828 17.6827 435.45 18.544C437.071 19.4053 438.325 20.634 439.212 22.23C440.098 23.826 440.542 25.688 440.542 27.816C440.542 29.8933 440.124 31.73 439.288 33.326C438.452 34.8967 437.274 36.1253 435.754 37.012C434.234 37.8733 432.486 38.304 430.51 38.304C427.9 38.304 425.861 37.4807 424.392 35.834V45.372H418.464V27.854C418.464 25.7513 418.932 23.902 419.87 22.306C420.807 20.71 422.124 19.4687 423.822 18.582C425.519 17.6953 427.495 17.252 429.75 17.252ZM429.484 33.44C431.029 33.44 432.283 32.9207 433.246 31.882C434.208 30.8433 434.69 29.488 434.69 27.816C434.69 26.1187 434.208 24.7507 433.246 23.712C432.283 22.648 431.029 22.116 429.484 22.116C427.938 22.116 426.684 22.6353 425.722 23.674C424.784 24.7127 424.316 26.0807 424.316 27.778C424.316 29.4753 424.784 30.8433 425.722 31.882C426.659 32.9207 427.913 33.44 429.484 33.44Z" fill="#19017A"/>
</g>
<defs>
<filter id="filter0_d" x="2.21517" y="9.804" width="438.847" height="36.6097" filterUnits="userSpaceOnUse" color-interpolation-filters="sRGB">
<feFlood flood-opacity="0" result="BackgroundImageFix"/>
<feColorMatrix in="SourceAlpha" type="matrix" values="0 0 0 0 0 0 0 0 0 0 0 0 0 0 0 0 0 0 127 0"/>
<feOffset dy="0.520833"/>
<feGaussianBlur stdDeviation="0.260417"/>
<feColorMatrix type="matrix" values="0 0 0 0 1 0 0 0 0 1 0 0 0 0 1 0 0 0 0.45 0"/>
<feBlend mode="normal" in2="BackgroundImageFix" result="effect1_dropShadow"/>
<feBlend mode="normal" in="SourceGraphic" in2="effect1_dropShadow" result="shape"/>
</filter>
<radialGradient id="paint0_radial" cx="0" cy="0" r="1" gradientUnits="userSpaceOnUse" gradientTransform="translate(194 25) rotate(90) scale(10)">
<stop offset="0.286458" stop-color="#02861F"/>
<stop offset="1" stop-color="#016F19"/>
</radialGradient>
<linearGradient id="paint1_linear" x1="184" y1="35.0012" x2="204" y2="35.0012" gradientUnits="userSpaceOnUse">
<stop stop-color="#02861F" stop-opacity="0.8"/>
<stop offset="1" stop-color="#02861F" stop-opacity="0.8"/>
</linearGradient>
<linearGradient id="paint2_linear" x1="-0.000176312" y1="48.0028" x2="443" y2="48.0028" gradientUnits="userSpaceOnUse">
<stop stop-color="#FFB55F"/>
<stop offset="1" stop-color="#FFB015"/>
</linearGradient>
</defs>
</svg>
