<svg width="350" height="40" viewBox="0 0 350 40" fill="none" xmlns="http://www.w3.org/2000/svg">
<circle cx="153.229" cy="20.25" r="7.5" fill="#02861F" fill-opacity="0.8"/>
<circle cx="153.229" cy="20.25" r="7.5" fill="url(#paint0_radial)"/>
<path d="M153.229 19.75C153.505 19.75 153.729 19.9739 153.729 20.25H137.729C137.729 28.8104 144.669 35.75 153.229 35.75V19.75ZM152.729 20.25C152.729 19.9739 152.953 19.75 153.229 19.75V35.75C161.79 35.75 168.729 28.8104 168.729 20.25H152.729ZM153.229 20.75C152.953 20.75 152.729 20.5261 152.729 20.25H168.729C168.729 11.6896 161.79 4.75 153.229 4.75V20.75ZM153.229 4.75C144.669 4.75 137.729 11.6896 137.729 20.25H153.729C153.729 20.5261 153.505 20.75 153.229 20.75V4.75Z" fill="#CFEEFC"/>
<g filter="url(#filter0_d)">
<path d="M11.34 9.79C14.28 9.79 16.57 10.51 18.21 11.95C19.87 13.39 20.7 15.41 20.7 18.01C20.7 20.47 19.95 22.4 18.45 23.8C16.97 25.2 14.89 25.9 12.21 25.9C11.33 25.9 10.47 25.81 9.63 25.63C8.81 25.45 7.92 25.15 6.96 24.73V31H2.16V18.58C2.16 15.76 2.94 13.59 4.5 12.07C6.08 10.55 8.36 9.79 11.34 9.79ZM11.37 22.24C12.79 22.24 13.88 21.88 14.64 21.16C15.42 20.44 15.81 19.42 15.81 18.1C15.81 16.76 15.42 15.72 14.64 14.98C13.88 14.24 12.82 13.87 11.46 13.87C10.04 13.87 8.93 14.28 8.13 15.1C7.35 15.92 6.96 17.07 6.96 18.55V20.89C7.56 21.31 8.24 21.64 9 21.88C9.78 22.12 10.57 22.24 11.37 22.24ZM31.7967 31.24C30.0967 31.24 28.5667 30.89 27.2067 30.19C25.8667 29.47 24.8167 28.48 24.0567 27.22C23.2967 25.96 22.9167 24.53 22.9167 22.93C22.9167 21.33 23.2967 19.9 24.0567 18.64C24.8167 17.38 25.8667 16.4 27.2067 15.7C28.5667 14.98 30.0967 14.62 31.7967 14.62C33.4967 14.62 35.0167 14.98 36.3567 15.7C37.6967 16.4 38.7467 17.38 39.5067 18.64C40.2667 19.9 40.6467 21.33 40.6467 22.93C40.6467 24.53 40.2667 25.96 39.5067 27.22C38.7467 28.48 37.6967 29.47 36.3567 30.19C35.0167 30.89 33.4967 31.24 31.7967 31.24ZM31.7967 27.4C32.9967 27.4 33.9767 27 34.7367 26.2C35.5167 25.38 35.9067 24.29 35.9067 22.93C35.9067 21.57 35.5167 20.49 34.7367 19.69C33.9767 18.87 32.9967 18.46 31.7967 18.46C30.5967 18.46 29.6067 18.87 28.8267 19.69C28.0467 20.49 27.6567 21.57 27.6567 22.93C27.6567 24.29 28.0467 25.38 28.8267 26.2C29.6067 27 30.5967 27.4 31.7967 27.4ZM52.1456 31.24C50.4256 31.24 48.8756 30.89 47.4956 30.19C46.1356 29.47 45.0656 28.48 44.2856 27.22C43.5256 25.96 43.1456 24.53 43.1456 22.93C43.1456 21.33 43.5256 19.9 44.2856 18.64C45.0656 17.38 46.1356 16.4 47.4956 15.7C48.8756 14.98 50.4256 14.62 52.1456 14.62C53.8456 14.62 55.3256 14.98 56.5856 15.7C57.8656 16.4 58.7956 17.41 59.3756 18.73L55.7456 20.68C54.9056 19.2 53.6956 18.46 52.1156 18.46C50.8956 18.46 49.8856 18.86 49.0856 19.66C48.2856 20.46 47.8856 21.55 47.8856 22.93C47.8856 24.31 48.2856 25.4 49.0856 26.2C49.8856 27 50.8956 27.4 52.1156 27.4C53.7156 27.4 54.9256 26.66 55.7456 25.18L59.3756 27.16C58.7956 28.44 57.8656 29.44 56.5856 30.16C55.3256 30.88 53.8456 31.24 52.1456 31.24ZM83.4595 14.62C85.4795 14.62 87.0795 15.22 88.2595 16.42C89.4595 17.6 90.0595 19.38 90.0595 21.76V31H85.3795V22.48C85.3795 21.2 85.1095 20.25 84.5695 19.63C84.0495 18.99 83.2995 18.67 82.3195 18.67C81.2195 18.67 80.3495 19.03 79.7095 19.75C79.0695 20.45 78.7495 21.5 78.7495 22.9V31H74.0695V22.48C74.0695 19.94 73.0495 18.67 71.0095 18.67C69.9295 18.67 69.0695 19.03 68.4295 19.75C67.7895 20.45 67.4695 21.5 67.4695 22.9V31H62.7895V14.86H67.2595V16.72C67.8595 16.04 68.5895 15.52 69.4495 15.16C70.3295 14.8 71.2895 14.62 72.3295 14.62C73.4695 14.62 74.4995 14.85 75.4195 15.31C76.3395 15.75 77.0795 16.4 77.6395 17.26C78.2995 16.42 79.1295 15.77 80.1295 15.31C81.1495 14.85 82.2595 14.62 83.4595 14.62ZM102.298 31.24C100.598 31.24 99.0679 30.89 97.7079 30.19C96.3679 29.47 95.3179 28.48 94.5579 27.22C93.7979 25.96 93.4179 24.53 93.4179 22.93C93.4179 21.33 93.7979 19.9 94.5579 18.64C95.3179 17.38 96.3679 16.4 97.7079 15.7C99.0679 14.98 100.598 14.62 102.298 14.62C103.998 14.62 105.518 14.98 106.858 15.7C108.198 16.4 109.248 17.38 110.008 18.64C110.768 19.9 111.148 21.33 111.148 22.93C111.148 24.53 110.768 25.96 110.008 27.22C109.248 28.48 108.198 29.47 106.858 30.19C105.518 30.89 103.998 31.24 102.298 31.24ZM102.298 27.4C103.498 27.4 104.478 27 105.238 26.2C106.018 25.38 106.408 24.29 106.408 22.93C106.408 21.57 106.018 20.49 105.238 19.69C104.478 18.87 103.498 18.46 102.298 18.46C101.098 18.46 100.108 18.87 99.3279 19.69C98.5479 20.49 98.1579 21.57 98.1579 22.93C98.1579 24.29 98.5479 25.38 99.3279 26.2C100.108 27 101.098 27.4 102.298 27.4ZM127.297 22.57C129.197 23.21 130.147 24.49 130.147 26.41C130.147 27.87 129.597 29 128.497 29.8C127.397 30.6 125.757 31 123.577 31H114.967V14.86H123.217C125.237 14.86 126.817 15.23 127.957 15.97C129.097 16.69 129.667 17.71 129.667 19.03C129.667 19.83 129.457 20.54 129.037 21.16C128.637 21.76 128.057 22.23 127.297 22.57ZM119.257 21.49H122.797C124.437 21.49 125.257 20.91 125.257 19.75C125.257 18.61 124.437 18.04 122.797 18.04H119.257V21.49ZM123.187 27.82C124.907 27.82 125.767 27.23 125.767 26.05C125.767 25.43 125.567 24.98 125.167 24.7C124.767 24.4 124.137 24.25 123.277 24.25H119.257V27.82H123.187ZM153.129 9.64C155.229 9.64 157.119 10.11 158.799 11.05C160.499 11.99 161.829 13.29 162.789 14.95C163.749 16.59 164.229 18.44 164.229 20.5C164.229 22.56 163.749 24.42 162.789 26.08C161.829 27.72 160.499 29.01 158.799 29.95C157.119 30.89 155.229 31.36 153.129 31.36C151.249 31.36 149.529 30.99 147.969 30.25C146.409 29.49 145.119 28.44 144.099 27.1C143.099 25.74 142.459 24.19 142.179 22.45H139.419V31H134.589V10H139.419V18.25H142.239C142.559 16.57 143.219 15.08 144.219 13.78C145.239 12.46 146.519 11.44 148.059 10.72C149.599 10 151.289 9.64 153.129 9.64ZM153.129 27.22C154.289 27.22 155.339 26.94 156.279 26.38C157.219 25.82 157.959 25.03 158.499 24.01C159.039 22.99 159.309 21.82 159.309 20.5C159.309 19.18 159.039 18.01 158.499 16.99C157.959 15.97 157.219 15.18 156.279 14.62C155.339 14.06 154.289 13.78 153.129 13.78C151.969 13.78 150.919 14.06 149.979 14.62C149.039 15.18 148.299 15.97 147.759 16.99C147.219 18.01 146.949 19.18 146.949 20.5C146.949 21.82 147.219 22.99 147.759 24.01C148.299 25.03 149.039 25.82 149.979 26.38C150.919 26.94 151.969 27.22 153.129 27.22ZM181.187 18.7H172.907V31H168.257V14.86H181.187V18.7Z" fill="url(#paint1_linear)"/>
<path d="M200.407 15.88C198.607 14.84 196.677 14.17 194.617 13.87V31H189.757V13.87C187.697 14.17 185.757 14.84 183.937 15.88L182.287 12.25C183.727 11.39 185.287 10.74 186.967 10.3C188.647 9.86 190.377 9.64 192.157 9.64C193.957 9.64 195.697 9.86 197.377 10.3C199.077 10.74 200.637 11.39 202.057 12.25L200.407 15.88ZM212.102 14.62C213.822 14.62 215.322 14.96 216.602 15.64C217.882 16.32 218.872 17.29 219.572 18.55C220.272 19.81 220.622 21.28 220.622 22.96C220.622 24.6 220.292 26.05 219.632 27.31C218.972 28.55 218.042 29.52 216.842 30.22C215.642 30.9 214.262 31.24 212.702 31.24C210.642 31.24 209.032 30.59 207.872 29.29V36.82H203.192V22.99C203.192 21.33 203.562 19.87 204.302 18.61C205.042 17.35 206.082 16.37 207.422 15.67C208.762 14.97 210.322 14.62 212.102 14.62ZM211.892 27.4C213.112 27.4 214.102 26.99 214.862 26.17C215.622 25.35 216.002 24.28 216.002 22.96C216.002 21.62 215.622 20.54 214.862 19.72C214.102 18.88 213.112 18.46 211.892 18.46C210.672 18.46 209.682 18.87 208.922 19.69C208.182 20.51 207.812 21.59 207.812 22.93C207.812 24.27 208.182 25.35 208.922 26.17C209.662 26.99 210.652 27.4 211.892 27.4ZM240.81 14.86V31H236.34V29.14C235.18 30.54 233.5 31.24 231.3 31.24C229.78 31.24 228.4 30.9 227.16 30.22C225.94 29.54 224.98 28.57 224.28 27.31C223.58 26.05 223.23 24.59 223.23 22.93C223.23 21.27 223.58 19.81 224.28 18.55C224.98 17.29 225.94 16.32 227.16 15.64C228.4 14.96 229.78 14.62 231.3 14.62C233.36 14.62 234.97 15.27 236.13 16.57V14.86H240.81ZM232.11 27.4C233.29 27.4 234.27 27 235.05 26.2C235.83 25.38 236.22 24.29 236.22 22.93C236.22 21.57 235.83 20.49 235.05 19.69C234.27 18.87 233.29 18.46 232.11 18.46C230.91 18.46 229.92 18.87 229.14 19.69C228.36 20.49 227.97 21.57 227.97 22.93C227.97 24.29 228.36 25.38 229.14 26.2C229.92 27 230.91 27.4 232.11 27.4ZM245.832 14.86H250.482V21.16H257.502V14.86H262.182V31H257.502V24.97H250.482V31H245.832V14.86ZM274.943 31.24C273.223 31.24 271.673 30.89 270.293 30.19C268.933 29.47 267.863 28.48 267.083 27.22C266.323 25.96 265.943 24.53 265.943 22.93C265.943 21.33 266.323 19.9 267.083 18.64C267.863 17.38 268.933 16.4 270.293 15.7C271.673 14.98 273.223 14.62 274.943 14.62C276.643 14.62 278.123 14.98 279.383 15.7C280.663 16.4 281.593 17.41 282.173 18.73L278.543 20.68C277.703 19.2 276.493 18.46 274.913 18.46C273.693 18.46 272.683 18.86 271.883 19.66C271.083 20.46 270.683 21.55 270.683 22.93C270.683 24.31 271.083 25.4 271.883 26.2C272.683 27 273.693 27.4 274.913 27.4C276.513 27.4 277.723 26.66 278.543 25.18L282.173 27.16C281.593 28.44 280.663 29.44 279.383 30.16C278.123 30.88 276.643 31.24 274.943 31.24ZM307.701 22.87C307.701 25.37 306.861 27.35 305.181 28.81C303.521 30.25 301.141 31.08 298.041 31.3V36.82H293.751V31.3C290.651 31.08 288.261 30.26 286.581 28.84C284.921 27.4 284.091 25.41 284.091 22.87C284.091 20.37 284.911 18.43 286.551 17.05C288.211 15.67 290.611 14.87 293.751 14.65V8.74H298.041V14.65C301.141 14.87 303.521 15.68 305.181 17.08C306.861 18.48 307.701 20.41 307.701 22.87ZM288.621 22.87C288.621 24.31 289.031 25.42 289.851 26.2C290.671 26.98 291.971 27.47 293.751 27.67V18.28C291.971 18.46 290.671 18.93 289.851 19.69C289.031 20.43 288.621 21.49 288.621 22.87ZM298.041 27.67C299.821 27.47 301.121 26.98 301.941 26.2C302.781 25.42 303.201 24.31 303.201 22.87C303.201 21.49 302.781 20.43 301.941 19.69C301.121 18.93 299.821 18.46 298.041 18.28V27.67ZM319.51 27.49C320.35 27.49 321.09 27.37 321.73 27.13C322.39 26.87 323 26.47 323.56 25.93L326.05 28.63C324.53 30.37 322.31 31.24 319.39 31.24C317.57 31.24 315.96 30.89 314.56 30.19C313.16 29.47 312.08 28.48 311.32 27.22C310.56 25.96 310.18 24.53 310.18 22.93C310.18 21.35 310.55 19.93 311.29 18.67C312.05 17.39 313.08 16.4 314.38 15.7C315.7 14.98 317.18 14.62 318.82 14.62C320.36 14.62 321.76 14.95 323.02 15.61C324.28 16.25 325.28 17.19 326.02 18.43C326.78 19.65 327.16 21.1 327.16 22.78L315.22 25.09C315.56 25.89 316.09 26.49 316.81 26.89C317.55 27.29 318.45 27.49 319.51 27.49ZM318.82 18.16C317.64 18.16 316.68 18.54 315.94 19.3C315.2 20.06 314.81 21.11 314.77 22.45L322.63 20.92C322.41 20.08 321.96 19.41 321.28 18.91C320.6 18.41 319.78 18.16 318.82 18.16ZM339.276 14.62C340.996 14.62 342.496 14.96 343.776 15.64C345.056 16.32 346.046 17.29 346.746 18.55C347.446 19.81 347.796 21.28 347.796 22.96C347.796 24.6 347.466 26.05 346.806 27.31C346.146 28.55 345.216 29.52 344.016 30.22C342.816 30.9 341.436 31.24 339.876 31.24C337.816 31.24 336.206 30.59 335.046 29.29V36.82H330.366V22.99C330.366 21.33 330.736 19.87 331.476 18.61C332.216 17.35 333.256 16.37 334.596 15.67C335.936 14.97 337.496 14.62 339.276 14.62ZM339.066 27.4C340.286 27.4 341.276 26.99 342.036 26.17C342.796 25.35 343.176 24.28 343.176 22.96C343.176 21.62 342.796 20.54 342.036 19.72C341.276 18.88 340.286 18.46 339.066 18.46C337.846 18.46 336.856 18.87 336.096 19.69C335.356 20.51 334.986 21.59 334.986 22.93C334.986 24.27 335.356 25.35 336.096 26.17C336.836 26.99 337.826 27.4 339.066 27.4Z" fill="#19017A"/>
</g>
<defs>
<filter id="filter0_d" x="1.6392" y="8.74" width="346.678" height="29.1217" filterUnits="userSpaceOnUse" color-interpolation-filters="sRGB">
<feFlood flood-opacity="0" result="BackgroundImageFix"/>
<feColorMatrix in="SourceAlpha" type="matrix" values="0 0 0 0 0 0 0 0 0 0 0 0 0 0 0 0 0 0 127 0"/>
<feOffset dy="0.520833"/>
<feGaussianBlur stdDeviation="0.260417"/>
<feColorMatrix type="matrix" values="0 0 0 0 1 0 0 0 0 1 0 0 0 0 1 0 0 0 0.45 0"/>
<feBlend mode="normal" in2="BackgroundImageFix" result="effect1_dropShadow"/>
<feBlend mode="normal" in="SourceGraphic" in2="effect1_dropShadow" result="shape"/>
</filter>
<radialGradient id="paint0_radial" cx="0" cy="0" r="1" gradientUnits="userSpaceOnUse" gradientTransform="translate(153.229 20.25) rotate(90) scale(7.5)">
<stop offset="0.286458" stop-color="#02861F"/>
<stop offset="1" stop-color="#016F19"/>
</radialGradient>
<linearGradient id="paint1_linear" x1="-0.000139299" y1="40.0023" x2="350" y2="40.0023" gradientUnits="userSpaceOnUse">
<stop stop-color="#FFB55F"/>
<stop offset="1" stop-color="#FFB015"/>
</linearGradient>
</defs>
</svg>
