<svg width="145" height="57" viewBox="0 0 145 57" fill="none" xmlns="http://www.w3.org/2000/svg">
<circle cx="122.5" cy="13.8965" r="7.5" fill="#02861F" fill-opacity="0.8"/>
<circle cx="122.5" cy="13.8965" r="7.5" fill="url(#paint0_radial)"/>
<path d="M122.5 15.3965C121.672 15.3965 121 14.725 121 13.8965H109C109 21.3524 115.044 27.3965 122.5 27.3965V15.3965ZM124 13.8965C124 14.725 123.328 15.3965 122.5 15.3965V27.3965C129.956 27.3965 136 21.3524 136 13.8965H124ZM122.5 12.3965C123.328 12.3965 124 13.0681 124 13.8965H136C136 6.4407 129.956 0.396549 122.5 0.396549V12.3965ZM122.5 0.396549C115.044 0.396549 109 6.4407 109 13.8965H121C121 13.0681 121.672 12.3965 122.5 12.3965V0.396549Z" fill="#CFEEFC"/>
<g filter="url(#filter0_d)">
<path d="M10.072 5.032C12.424 5.032 14.256 5.608 15.568 6.76C16.896 7.912 17.56 9.528 17.56 11.608C17.56 13.576 16.96 15.12 15.76 16.24C14.576 17.36 12.912 17.92 10.768 17.92C10.064 17.92 9.376 17.848 8.704 17.704C8.048 17.56 7.336 17.32 6.568 16.984V22H2.728V12.064C2.728 9.808 3.352 8.072 4.6 6.856C5.864 5.64 7.688 5.032 10.072 5.032ZM10.096 14.992C11.232 14.992 12.104 14.704 12.712 14.128C13.336 13.552 13.648 12.736 13.648 11.68C13.648 10.608 13.336 9.776 12.712 9.184C12.104 8.592 11.256 8.296 10.168 8.296C9.032 8.296 8.144 8.624 7.504 9.28C6.88 9.936 6.568 10.856 6.568 12.04V13.912C7.048 14.248 7.592 14.512 8.2 14.704C8.824 14.896 9.456 14.992 10.096 14.992ZM26.1974 22.192C24.8374 22.192 23.6134 21.912 22.5254 21.352C21.4534 20.776 20.6134 19.984 20.0054 18.976C19.3974 17.968 19.0934 16.824 19.0934 15.544C19.0934 14.264 19.3974 13.12 20.0054 12.112C20.6134 11.104 21.4534 10.32 22.5254 9.76C23.6134 9.184 24.8374 8.896 26.1974 8.896C27.5574 8.896 28.7734 9.184 29.8454 9.76C30.9174 10.32 31.7574 11.104 32.3654 12.112C32.9734 13.12 33.2774 14.264 33.2774 15.544C33.2774 16.824 32.9734 17.968 32.3654 18.976C31.7574 19.984 30.9174 20.776 29.8454 21.352C28.7734 21.912 27.5574 22.192 26.1974 22.192ZM26.1974 19.12C27.1574 19.12 27.9414 18.8 28.5494 18.16C29.1734 17.504 29.4854 16.632 29.4854 15.544C29.4854 14.456 29.1734 13.592 28.5494 12.952C27.9414 12.296 27.1574 11.968 26.1974 11.968C25.2374 11.968 24.4454 12.296 23.8214 12.952C23.1974 13.592 22.8854 14.456 22.8854 15.544C22.8854 16.632 23.1974 17.504 23.8214 18.16C24.4454 18.8 25.2374 19.12 26.1974 19.12ZM42.2365 22.192C40.8605 22.192 39.6205 21.912 38.5165 21.352C37.4285 20.776 36.5725 19.984 35.9485 18.976C35.3405 17.968 35.0365 16.824 35.0365 15.544C35.0365 14.264 35.3405 13.12 35.9485 12.112C36.5725 11.104 37.4285 10.32 38.5165 9.76C39.6205 9.184 40.8605 8.896 42.2365 8.896C43.5965 8.896 44.7805 9.184 45.7885 9.76C46.8125 10.32 47.5565 11.128 48.0205 12.184L45.1165 13.744C44.4445 12.56 43.4765 11.968 42.2125 11.968C41.2365 11.968 40.4285 12.288 39.7885 12.928C39.1485 13.568 38.8285 14.44 38.8285 15.544C38.8285 16.648 39.1485 17.52 39.7885 18.16C40.4285 18.8 41.2365 19.12 42.2125 19.12C43.4925 19.12 44.4605 18.528 45.1165 17.344L48.0205 18.928C47.5565 19.952 46.8125 20.752 45.7885 21.328C44.7805 21.904 43.5965 22.192 42.2365 22.192ZM67.0476 8.896C68.6636 8.896 69.9436 9.376 70.8876 10.336C71.8476 11.28 72.3276 12.704 72.3276 14.608V22H68.5836V15.184C68.5836 14.16 68.3676 13.4 67.9356 12.904C67.5196 12.392 66.9196 12.136 66.1356 12.136C65.2556 12.136 64.5596 12.424 64.0476 13C63.5356 13.56 63.2796 14.4 63.2796 15.52V22H59.5356V15.184C59.5356 13.152 58.7196 12.136 57.0876 12.136C56.2236 12.136 55.5356 12.424 55.0236 13C54.5116 13.56 54.2556 14.4 54.2556 15.52V22H50.5116V9.088H54.0876V10.576C54.5676 10.032 55.1516 9.616 55.8396 9.328C56.5436 9.04 57.3116 8.896 58.1436 8.896C59.0556 8.896 59.8796 9.08 60.6156 9.448C61.3516 9.8 61.9436 10.32 62.3916 11.008C62.9196 10.336 63.5836 9.816 64.3836 9.448C65.1996 9.08 66.0876 8.896 67.0476 8.896ZM81.8783 22.192C80.5183 22.192 79.2943 21.912 78.2063 21.352C77.1343 20.776 76.2943 19.984 75.6863 18.976C75.0783 17.968 74.7743 16.824 74.7743 15.544C74.7743 14.264 75.0783 13.12 75.6863 12.112C76.2943 11.104 77.1343 10.32 78.2063 9.76C79.2943 9.184 80.5183 8.896 81.8783 8.896C83.2383 8.896 84.4543 9.184 85.5263 9.76C86.5983 10.32 87.4383 11.104 88.0463 12.112C88.6543 13.12 88.9583 14.264 88.9583 15.544C88.9583 16.824 88.6543 17.968 88.0463 18.976C87.4383 19.984 86.5983 20.776 85.5263 21.352C84.4543 21.912 83.2383 22.192 81.8783 22.192ZM81.8783 19.12C82.8383 19.12 83.6223 18.8 84.2303 18.16C84.8543 17.504 85.1663 16.632 85.1663 15.544C85.1663 14.456 84.8543 13.592 84.2303 12.952C83.6223 12.296 82.8383 11.968 81.8783 11.968C80.9183 11.968 80.1263 12.296 79.5023 12.952C78.8783 13.592 78.5663 14.456 78.5663 15.544C78.5663 16.632 78.8783 17.504 79.5023 18.16C80.1263 18.8 80.9183 19.12 81.8783 19.12ZM101.637 15.256C103.157 15.768 103.917 16.792 103.917 18.328C103.917 19.496 103.477 20.4 102.597 21.04C101.717 21.68 100.405 22 98.6614 22H91.7734V9.088H98.3734C99.9894 9.088 101.253 9.384 102.165 9.976C103.077 10.552 103.533 11.368 103.533 12.424C103.533 13.064 103.365 13.632 103.029 14.128C102.709 14.608 102.245 14.984 101.637 15.256ZM95.2054 14.392H98.0374C99.3494 14.392 100.005 13.928 100.005 13C100.005 12.088 99.3494 11.632 98.0374 11.632H95.2054V14.392ZM98.3494 19.456C99.7254 19.456 100.413 18.984 100.413 18.04C100.413 17.544 100.253 17.184 99.9334 16.96C99.6134 16.72 99.1094 16.6 98.4214 16.6H95.2054V19.456H98.3494ZM122.063 4.912C123.743 4.912 125.255 5.288 126.599 6.04C127.959 6.792 129.023 7.832 129.791 9.16C130.559 10.472 130.943 11.952 130.943 13.6C130.943 15.248 130.559 16.736 129.791 18.064C129.023 19.376 127.959 20.408 126.599 21.16C125.255 21.912 123.743 22.288 122.063 22.288C120.559 22.288 119.183 21.992 117.935 21.4C116.687 20.792 115.655 19.952 114.839 18.88C114.039 17.792 113.527 16.552 113.303 15.16H111.095V22H107.231V5.2H111.095V11.8H113.351C113.607 10.456 114.135 9.264 114.935 8.224C115.751 7.168 116.775 6.352 118.007 5.776C119.239 5.2 120.591 4.912 122.063 4.912ZM122.063 18.976C122.991 18.976 123.831 18.752 124.583 18.304C125.335 17.856 125.927 17.224 126.359 16.408C126.791 15.592 127.007 14.656 127.007 13.6C127.007 12.544 126.791 11.608 126.359 10.792C125.927 9.976 125.335 9.344 124.583 8.896C123.831 8.448 122.991 8.224 122.063 8.224C121.135 8.224 120.295 8.448 119.543 8.896C118.791 9.344 118.199 9.976 117.767 10.792C117.335 11.608 117.119 12.544 117.119 13.6C117.119 14.656 117.335 15.592 117.767 16.408C118.199 17.224 118.791 17.856 119.543 18.304C120.295 18.752 121.135 18.976 122.063 18.976ZM144.269 12.16H137.645V22H133.925V9.088H144.269V12.16Z" fill="url(#paint1_linear)"/>
<path d="M15.712 38.904C14.272 38.072 12.728 37.536 11.08 37.296V51H7.192V37.296C5.544 37.536 3.992 38.072 2.536 38.904L1.216 36C2.368 35.312 3.616 34.792 4.96 34.44C6.304 34.088 7.688 33.912 9.112 33.912C10.552 33.912 11.944 34.088 13.288 34.44C14.648 34.792 15.896 35.312 17.032 36L15.712 38.904ZM24.8281 37.896C26.2041 37.896 27.4041 38.168 28.4281 38.712C29.4521 39.256 30.2441 40.032 30.8041 41.04C31.3641 42.048 31.6441 43.224 31.6441 44.568C31.6441 45.88 31.3801 47.04 30.8521 48.048C30.3241 49.04 29.5801 49.816 28.6201 50.376C27.6601 50.92 26.5561 51.192 25.3081 51.192C23.6601 51.192 22.3721 50.672 21.4441 49.632V55.656H17.7001V44.592C17.7001 43.264 17.9961 42.096 18.5881 41.088C19.1801 40.08 20.0121 39.296 21.0841 38.736C22.1561 38.176 23.4041 37.896 24.8281 37.896ZM24.6601 48.12C25.6361 48.12 26.4281 47.792 27.0361 47.136C27.6441 46.48 27.9481 45.624 27.9481 44.568C27.9481 43.496 27.6441 42.632 27.0361 41.976C26.4281 41.304 25.6361 40.968 24.6601 40.968C23.6841 40.968 22.8921 41.296 22.2841 41.952C21.6921 42.608 21.3961 43.472 21.3961 44.544C21.3961 45.616 21.6921 46.48 22.2841 47.136C22.8761 47.792 23.6681 48.12 24.6601 48.12ZM47.5542 38.088V51H43.9782V49.512C43.0502 50.632 41.7062 51.192 39.9462 51.192C38.7302 51.192 37.6262 50.92 36.6342 50.376C35.6582 49.832 34.8902 49.056 34.3302 48.048C33.7702 47.04 33.4902 45.872 33.4902 44.544C33.4902 43.216 33.7702 42.048 34.3302 41.04C34.8902 40.032 35.6582 39.256 36.6342 38.712C37.6262 38.168 38.7302 37.896 39.9462 37.896C41.5942 37.896 42.8822 38.416 43.8102 39.456V38.088H47.5542ZM40.5942 48.12C41.5382 48.12 42.3222 47.8 42.9462 47.16C43.5702 46.504 43.8822 45.632 43.8822 44.544C43.8822 43.456 43.5702 42.592 42.9462 41.952C42.3222 41.296 41.5382 40.968 40.5942 40.968C39.6342 40.968 38.8422 41.296 38.2182 41.952C37.5942 42.592 37.2822 43.456 37.2822 44.544C37.2822 45.632 37.5942 46.504 38.2182 47.16C38.8422 47.8 39.6342 48.12 40.5942 48.12ZM51.3325 38.088H55.0525V43.128H60.6685V38.088H64.4125V51H60.6685V46.176H55.0525V51H51.3325V38.088ZM74.3806 51.192C73.0046 51.192 71.7646 50.912 70.6606 50.352C69.5726 49.776 68.7166 48.984 68.0926 47.976C67.4846 46.968 67.1806 45.824 67.1806 44.544C67.1806 43.264 67.4846 42.12 68.0926 41.112C68.7166 40.104 69.5726 39.32 70.6606 38.76C71.7646 38.184 73.0046 37.896 74.3806 37.896C75.7406 37.896 76.9246 38.184 77.9326 38.76C78.9566 39.32 79.7006 40.128 80.1646 41.184L77.2606 42.744C76.5886 41.56 75.6206 40.968 74.3566 40.968C73.3806 40.968 72.5726 41.288 71.9326 41.928C71.2926 42.568 70.9726 43.44 70.9726 44.544C70.9726 45.648 71.2926 46.52 71.9326 47.16C72.5726 47.8 73.3806 48.12 74.3566 48.12C75.6366 48.12 76.6046 47.528 77.2606 46.344L80.1646 47.928C79.7006 48.952 78.9566 49.752 77.9326 50.328C76.9246 50.904 75.7406 51.192 74.3806 51.192ZM100.348 44.496C100.348 46.496 99.6756 48.08 98.3316 49.248C97.0036 50.4 95.0996 51.064 92.6196 51.24V55.656H89.1876V51.24C86.7076 51.064 84.7956 50.408 83.4516 49.272C82.1236 48.12 81.4596 46.528 81.4596 44.496C81.4596 42.496 82.1156 40.944 83.4276 39.84C84.7556 38.736 86.6756 38.096 89.1876 37.92V33.192H92.6196V37.92C95.0996 38.096 97.0036 38.744 98.3316 39.864C99.6756 40.984 100.348 42.528 100.348 44.496ZM85.0836 44.496C85.0836 45.648 85.4116 46.536 86.0676 47.16C86.7236 47.784 87.7636 48.176 89.1876 48.336V40.824C87.7636 40.968 86.7236 41.344 86.0676 41.952C85.4116 42.544 85.0836 43.392 85.0836 44.496ZM92.6196 48.336C94.0436 48.176 95.0836 47.784 95.7396 47.16C96.4116 46.536 96.7476 45.648 96.7476 44.496C96.7476 43.392 96.4116 42.544 95.7396 41.952C95.0836 41.344 94.0436 40.968 92.6196 40.824V48.336ZM109.555 48.192C110.227 48.192 110.819 48.096 111.331 47.904C111.859 47.696 112.347 47.376 112.795 46.944L114.787 49.104C113.571 50.496 111.795 51.192 109.459 51.192C108.003 51.192 106.715 50.912 105.595 50.352C104.475 49.776 103.611 48.984 103.003 47.976C102.395 46.968 102.091 45.824 102.091 44.544C102.091 43.28 102.387 42.144 102.979 41.136C103.587 40.112 104.411 39.32 105.451 38.76C106.507 38.184 107.691 37.896 109.003 37.896C110.235 37.896 111.355 38.16 112.363 38.688C113.371 39.2 114.171 39.952 114.763 40.944C115.371 41.92 115.675 43.08 115.675 44.424L106.123 46.272C106.395 46.912 106.819 47.392 107.395 47.712C107.987 48.032 108.707 48.192 109.555 48.192ZM109.003 40.728C108.059 40.728 107.291 41.032 106.699 41.64C106.107 42.248 105.795 43.088 105.763 44.16L112.051 42.936C111.875 42.264 111.515 41.728 110.971 41.328C110.427 40.928 109.771 40.728 109.003 40.728ZM125.127 37.896C126.503 37.896 127.703 38.168 128.727 38.712C129.751 39.256 130.543 40.032 131.103 41.04C131.663 42.048 131.943 43.224 131.943 44.568C131.943 45.88 131.679 47.04 131.151 48.048C130.623 49.04 129.879 49.816 128.919 50.376C127.959 50.92 126.855 51.192 125.607 51.192C123.959 51.192 122.671 50.672 121.743 49.632V55.656H117.999V44.592C117.999 43.264 118.295 42.096 118.887 41.088C119.479 40.08 120.311 39.296 121.383 38.736C122.455 38.176 123.703 37.896 125.127 37.896ZM124.959 48.12C125.935 48.12 126.727 47.792 127.335 47.136C127.943 46.48 128.247 45.624 128.247 44.568C128.247 43.496 127.943 42.632 127.335 41.976C126.727 41.304 125.935 40.968 124.959 40.968C123.983 40.968 123.191 41.296 122.583 41.952C121.991 42.608 121.695 43.472 121.695 44.544C121.695 45.616 121.991 46.48 122.583 47.136C123.175 47.792 123.967 48.12 124.959 48.12Z" fill="#19017A"/>
</g>
<defs>
<filter id="filter0_d" x="0.695231" y="4.912" width="144.095" height="51.7857" filterUnits="userSpaceOnUse" color-interpolation-filters="sRGB">
<feFlood flood-opacity="0" result="BackgroundImageFix"/>
<feColorMatrix in="SourceAlpha" type="matrix" values="0 0 0 0 0 0 0 0 0 0 0 0 0 0 0 0 0 0 127 0"/>
<feOffset dy="0.520833"/>
<feGaussianBlur stdDeviation="0.260417"/>
<feColorMatrix type="matrix" values="0 0 0 0 1 0 0 0 0 1 0 0 0 0 1 0 0 0 0.45 0"/>
<feBlend mode="normal" in2="BackgroundImageFix" result="effect1_dropShadow"/>
<feBlend mode="normal" in="SourceGraphic" in2="effect1_dropShadow" result="shape"/>
</filter>
<radialGradient id="paint0_radial" cx="0" cy="0" r="1" gradientUnits="userSpaceOnUse" gradientTransform="translate(122.5 13.8965) rotate(90) scale(7.5)">
<stop offset="0.286458" stop-color="#02861F"/>
<stop offset="1" stop-color="#016F19"/>
</radialGradient>
<linearGradient id="paint1_linear" x1="0.999943" y1="54.0031" x2="145" y2="54.0031" gradientUnits="userSpaceOnUse">
<stop stop-color="#FFB55F"/>
<stop offset="1" stop-color="#FFB015"/>
</linearGradient>
</defs>
</svg>
